<svg version="1" xmlns="http://www.w3.org/2000/svg" width="725.333" height="725.333" viewBox="0 0 544.000000 544.000000"><path d="M208 4.2c-3.6 1.1-8.6 2.5-11.2 3.3-2.5.7-6.1 2-7.9 2.9-1.8.9-3.8 1.6-4.6 1.6-.8 0-1.1.5-.7 1.2.4.6.3.8-.3.5-1.8-1.1-19.7 6.8-18.8 8.3.3.5 0 .7-.8.4-.8-.3-3 .4-4.8 1.5-1.9 1.2-4.1 2.4-4.9 2.7-5.1 2.3-17.9 10.8-17.3 11.7.3.5.2.7-.4.4-1.1-.7-12.5 6.8-11.6 7.7.4.3-.1.6-1 .6s-2.3 1-3.1 2.2c-.9 1.2-1.6 1.9-1.6 1.5 0-.4-1 .1-2.2 1.2C97 69.4 91.7 74.7 92.6 76.2c.4.7.2.8-.5.4-.6-.4-1.4 0-1.7.8-.3.9-1 1.6-1.5 1.6-.8 0-.4-5 .7-9.5.5-1.6-.1-1.3-2.5 1.2-1.7 1.8-3.1 3.5-3.1 3.8 0 .3-1 1.6-2.3 2.9-1.2 1.3-3.1 3.6-4.1 5-1.1 1.5-2.8 3.7-3.8 4.9-1 1.2-2.1 2.6-2.6 3.2-2.2 2.7-8.9 13.1-9 13.9 0 .5-.4 1.2-.9 1.5-1.5 1.1-7.6 11.2-7.6 12.7 0 .8-.3 1.4-.7 1.4-1.2 0-7.2 12.8-6.5 13.9.3.7.3 1-.2.9-.4-.2-.9.1-1 .6-.1.5-.5 1.2-1 1.5-1.6 1.1-5.4 10.2-4.7 11.3.4.7.3.8-.4.4-1.6-1-1.5 1.6.1 3.4 1 1.2.9 1.2-.5.2-1.4-1.1-1.8-.8-2.8 2.3-.6 2-.9 4.3-.6 5.1.3.8.2 1.3-.3 1-1-.7-3.3 5.2-2.6 6.4.3.5 0 1-.6 1.2-.6.2-1.2 1.6-1.2 3.1-.1 1.5-.6 2.7-1.1 2.7-.4 0-.6.9-.3 2s.1 1.8-.4 1.4c-.5-.3-1 .6-1.1 2-.2 4.7-.3 5.1-.9 5.6-.3.3-1.2 3.3-2 6.7-1.1 4.5-1.2 6.6-.5 7.4.8.9.8 1-.1.5-1.8-1-2.1 2.7-.3 4.2 1.3 1.1 1.3 1.1-.1.6-1.8-.6-2 .3-2.3 9 0 2.4-.4 4.2-.8 4-.4-.2-.6.9-.6 2.4.1 1.6-.2 3.4-.6 4-.3.6-.1 1.4.5 1.8.8.4.7.9-.2 1.5-1.1.7-1.1.9.1.9 1.2 0 1.2.2.2.9-1 .6-1.3 4.9-1.3 18.2.1 20.2.3 25.9 1.1 25.9.3 0 .5 1.2.4 2.7 0 1.6.3 4.3.7 6.1.4 1.7.3 3.5-.2 3.8-.5.3-.9.3-.9.1 0-.2-.5-2.9-1-5.8-1.9-9.8-3.2-20.5-3.4-28.4-.1-3.3-.5-6.6-.9-7.3-.5-.6-.4-1.2 0-1.2.5 0 .9-3.6.8-8 0-4.4.2-8 .5-8s.6-1.5.6-3.3c0-3.4 1-12.4 1.9-17 .3-1.5.7-3.7.9-5 .2-1.2.7-3.6 1-5.2.6-2.9.6-2.9-.5-.5-1.2 2.8-4.5 15.5-5.4 21-.3 1.9-.8 4.2-1 5-.7 2.6-1.7 9.4-2 14-.2 2.5-.5 4.5-.6 4.5-.1 0-.3 2.7-.5 6-.1 3.3-.3 6-.4 6-.2 0-.4 5.5-.5 12.2-.2 7.9.1 12.3.7 12.3.7 0 .7.4.1 1.2-.6.7-.9 2.2-.7 3.2.1 1 .4 4 .5 6.5.1 2.5.5 5 .8 5.6.3.5.4 2.3.2 3.8-.1 1.5.3 3.5 1.1 4.4 1.1 1.4 1.1 1.6-.1.8-.9-.5-1.2-.4-.8.2.4.6.9 2.8 1.2 4.9.9 7.5 2.9 16.4 3.7 16.4.4 0 .5.6.2 1.4-.3.7.6 5.7 2 11s2.6 9.8 2.6 10.2c0 .3.4.2 1-.1.6-.3.7.1.4 1-.4.8.2 2.7 1.1 4.1.9 1.5 1.2 2.3.5 1.9-.9-.6-.9-.3-.2 1.1.6 1.1 1 2.2 1.1 2.6.1.5.1.9.2 1 0 .2.2 1.5.4 3 .5 3.7-.9 3.6-2.5-.2-.7-1.7-1.4-2.9-1.6-2.7-.6.6 1.7 6.7 2.5 6.7.4 0 .7.8.8 1.7.1 2.3 2.6 8.6 3.6 9.4.5.3.9 1 1 1.5.1.5.5.8.9.7.4-.2.5.3.2 1.1-.6 1.6 10.4 23.6 11.8 23.6.5 0 .7.4.4.9-.3.5.2 1.9 1.2 3.2 1 1.3 3.3 4.9 5.1 7.9 1.9 3 3.6 5.7 4 6 .3.3 2.2 2.7 4 5.5 5.8 8.3 11.3 14.5 12.4 13.8.6-.3.7-.1.3.5-1.3 2.2 26.3 30 28.5 28.6.5-.3.8 0 .7.8-.2.7.3 1.2 1 1 .8-.1 1.1.2.8.7-.6.8 5.9 6.5 6.8 5.9.2-.2 1.3.8 2.5 2.2 1.1 1.4 2 2.2 2.1 1.8 0-.4 1.5.6 3.2 2.3 1.8 1.6 3.9 2.7 4.6 2.4.7-.3 1.1-.1.8.4-.3.5 1.1 1.9 3.2 3.2 14.4 8.9 19.9 11.9 20.9 11.4.7-.2 1.2-.1 1 .3-.1.4.2.8.7.9.5.1 1.2.5 1.5 1 .8 1.1 10.2 5.6 11.9 5.6.6 0 1.2.4 1.2.9s.5.6 1 .3c.6-.3 1-.2 1 .3 0 1.3 5.9 3.4 7.3 2.5.5-.3.7-.1.4.4-.6 1 1.1 1.9 5.4 2.9.9.2 3.7 1.3 6.3 2.4 2.6 1.1 5.7 2.2 6.9 2.4 1.2.2 4.1.9 6.5 1.5 2.3.7 4.8.9 5.5.5.9-.6.9-.4-.1.8-1 1.2-2.1 1.4-5.5.7-5.7-1.1-5.9-1.1-5.1.3.5.8.1.7-1-.2-1-.8-2.5-1.5-3.4-1.7-1-.1-5.1-1.4-9.2-2.8-11.3-3.9-12.1-4-5.1-.6 3.5 1.7 6.6 2.9 6.9 2.6.3-.3 1.2.1 2.1.8 2.2 1.9 10 4.9 11.1 4.2.4-.3 1 0 1.2.6.2.7 1.3 1.3 2.4 1.3 1.1.1 2.4.5 2.9.8 2 1.2 11.3 3.6 11.9 3.1.3-.4.6-.2.6.4 0 .6.9 1.3 2 1.6 1.3.3 1.8.1 1.3-.6-.4-.7.1-.6 1 .2.9.7 1.7 1 1.7.6s.6-.3 1.3.3c.6.5 3 1.2 5.2 1.5 2.2.3 5.2 1 6.7 1.6 1.4.5 2.8.8 3.1.5.2-.2 1.6 0 3.1.6 2 .7 2.5.7 2-.1-.5-.8-.1-.8 1.4 0 1.1.6 5.1 1.3 8.7 1.5 3.7.3 7 .7 7.3 1.1.3.3 1.7-.2 3.1-1.2 2.5-1.6 2.5-1.6 1.2.1-1.4 1.7-1.2 1.8 2.5 1.6 2.1-.1 4.4-.1 4.9 0 5.3.9 39.6-.8 48.2-2.4 1.1-.3 4.2-.8 6.7-1.1 2.5-.4 4.3-1.1 4-1.6-.3-.5.1-.7.8-.4 1.3.5 6.9-.4 14.3-2.5 2.2-.6 4.9-1.3 6-1.5 1.1-.3 2.1-.9 2.3-1.5.2-.6.8-.8 1.2-.5 1.3.8 11-2.5 11-3.7 0-.5.4-.7.9-.3.5.3 3.3-.4 6.3-1.6 7.4-2.9 28.2-13.3 29.8-14.9 1.5-1.5 11.3-7 12.5-7 .8 0 1.7-.5 2-1 .4-.6 1-.8 1.5-.5.5.3 1.9.1 3-.5 3.7-2 2.3 1.6-2.2 5.6l-4.3 3.7 4-2.3c2.2-1.3 4.5-2.9 5.1-3.7.6-.7 1.6-1.3 2.2-1.3.6 0 1.5-.8 2.1-1.8.5-.9 1.3-1.7 1.8-1.7.4 0 .7-.3.6-.7-.2-.4.4-.5 1.2-.2.8.4 1.7-.1 2.1-1 .3-.9 1.1-1.6 1.8-1.6 1 0 5.1-3.4 16.3-13.4 3.7-3.3 4.1-4.1 3.1-5.5-1.1-1.4-1.1-1.4.2-.4 1.8 1.4 4.6.1 3.6-1.6-.4-.6-.3-1 .3-.9 1.7.4 16.2-15.5 15.6-17-.3-.7 0-1 .6-.6.9.5 3.8-2.3 3.6-3.6-.1-.3 1-1.7 2.3-3.2 4.5-4.8 11-14.1 11-15.7 0-.6.5-1.1 1-1.1.6 0 1-.7 1-1.5s.5-1.5 1-1.5c.6 0 1-.5 1-1 0-.6 1.1-2.8 2.5-5s2.2-4 1.8-4c-.5 0-.2-.4.5-.9.7-.4 1.4-1.7 1.5-2.9 0-1.1.4-1.9.8-1.7 1.5 1 15.8-33.8 16.2-39.5.1-1.5.6-2.6 1.1-2.3.5.3.7-.6.4-2.1-.3-1.4-.1-2.6.5-2.6.5 0 .7-.9.4-2-.3-1.2-.1-1.8.5-1.4.5.3.9-.2.7-1.2-.1-1.1.1-2.7.6-3.7.4-.9.4-2.4.1-3.3-.3-.8-.2-1.3.3-1 .5.3 1.1-1.1 1.4-3.2.9-5.3 1.2-6.6 1.9-7.7.3-.6.9-2.6 1.4-4.5 1-4.4.8-3.8 2.3-8.9.7-2.3 1-5 .7-5.8-.4-.9-.2-1.1.6-.7.7.5.9.2.5-.8-.3-.9 0-2.1.6-2.7.6-.6.8-1.1.5-1.1-.4 0-.3-1.4.2-3 .6-2.3.6-2.9-.3-2.3-.7.4-.7 0 .1-1 .8-.9 1.1-2.1.7-2.7-.3-.5-.2-1 .3-1s.9-.6.9-1.3c0-.6.4-4.1.9-7.7 1-8.2 1.2-46.1.1-55.7-.7-6.5-3.9-25-5.1-29.8-.3-1.1-1.3-4.9-2.2-8.5-1-3.6-2.2-6.8-2.8-7.2-.7-.5-.7-.8-.1-.8s.3-.5-.5-1-1-1-.3-1 .5-1.6-.7-4.8c-1-2.6-2.3-4.6-2.8-4.5-.5.1-.7-.9-.4-2.2.2-1.5 0-2.5-.7-2.5s-1-.4-.6-.9c.6-1.1-1.5-6.1-2.5-6.1-.5 0-.7-.6-.6-1.3.2-2-7.6-17.7-8.5-17.1-.5.3-.6-.1-.3-.9s-.2-2.1-1-3c-.9-.9-1.6-2-1.6-2.6 0-.6-.5-1.1-1-1.1-.6 0-.9-.6-.8-1.3.2-.6-.3-1.1-1-.9-.8.1-1.1-.2-.7-.8.6-1-8.9-16.3-12.7-20.4-1-1.1-1.8-2.4-1.8-2.8 0-.5-.4-.6-1-.3-.5.3-1-.1-1-.9 0-2.2-4.1-6.7-5.3-5.9-.6.3-.7.1-.3-.5.4-.6-.7-2.6-2.5-4.4-1.7-1.8-3.8-4.3-4.6-5.5-.8-1.3-1.9-2-2.4-1.7-.5.3-.9.1-.9-.5 0-.5.6-1.1 1.2-1.3 1.3-.5-.7-2.7-9.4-10.3-6.5-5.6-11.9-9.9-13.2-10.4-.6-.2-1.3-.7-1.6-1-1.3-1.7-8.9-7.1-9.9-7.1-.6 0-1.1-.4-1.1-.8 0-1-8.2-5.8-9.2-5.4-.5.1-.8-.2-.8-.7 0-1.4-11.1-7.2-12.3-6.4-.6.3-.7.1-.3-.5.6-1.1 0-1.4-2-1.1-.4 0-1-.4-1.3-.9-.9-1.3-13.1-7.4-13.1-6.5 0 .5-.4.3-.8-.3-1.1-1.7-18.2-8.5-19.4-7.8-.6.4-.8.3-.5-.3.5-.8-1.4-1.5-10.3-3.8-.3-.1-1.3-.5-2.2-.8-3.4-1.3-5.3-1.9-7.6-2.3-1.3-.3-4.9-1.1-7.9-1.9-3.1-.8-5.9-1.2-6.4-1-.4.3-1.1.1-1.4-.5-.5-.8-1.2-.7-2.3.2-1.2 1-1.4 1-.8 0 .5-.8 0-1.2-1.6-1.3-2.5-.1-4.8-.4-8.6-1.4-1.8-.4-2.2-.3-1.6.7.6 1.1.5 1.1-.8 0-.9-.7-5.4-1.4-10.4-1.7-4.9-.3-8.9-.5-8.9-.6 0-.2-15.6-.8-21.4-.9-2.4 0-4.1-.3-3.8-.7.4-.3 2.5-.6 4.8-.5 2.8.1 3.8-.2 3.3-1-.5-.7-.3-.8.7-.3 1.4.9 8.9 1.3 8.9.5 0-.3 3-.4 6.7-.2 3.8.2 10.5.4 15 .5 4.6.1 8.3.4 8.3.7 0 .3 2.6.6 5.8.8 6 .3 11.1.8 15.2 1.5 1.4.3 5 .8 8 1.1 5.4.5 5.4.5 2.3-.9-1.7-.8-4.2-1.7-5.5-1.9-1.2-.3-4.5-1.2-7.3-2l-5-1.4 4.5.3c2.5.2 5.2.6 6 .9.9.4 3.1.8 5 1 1.9.2 4.4.6 5.5.9 1.1.3 4.9 1.2 8.5 2 3.6.9 9.2 2.4 12.6 3.5 3.3 1 6.8 1.8 7.7 1.6.9-.1 1.5.2 1.1.7-.3.5.4.9 1.6.9 1.1 0 2.8.4 3.8.9 1.7.9 18.2 7.5 19.2 7.6.3.1 4.5 2 9.4 4.3s9.1 4.2 9.3 4.2c.2 0 3.6 1.8 7.6 4 6.5 3.6 6.5 3 .2-1.8-5-3.8-7.6-5.2-8.5-4.7-.6.4-.9.2-.8-.5.2-.6-1-1.8-2.7-2.8-1.6-.9-3.2-1.9-3.5-2.2-.3-.3-1.6-1.1-2.9-1.8-1.3-.8-3.9-2.3-5.8-3.3-1.9-1.1-3.9-1.6-4.5-1.3-.6.4-.8.3-.5-.3.7-1.1-18.8-10.3-22.3-10.6-1.1-.1-2-.4-2-.8 0-1-11.2-3.9-12.3-3.2-.6.3-.7.1-.3-.5.5-.8-.2-1.3-1.8-1.4-4.6-.2-5.1-.3-5.6-.8s-15.5-4.8-19-5.4c-.8-.2-2.8-.8-4.3-1.4-1.5-.7-3.1-1.1-3.5-1.1-.4.1-.9 0-1.2-.1-.7-.2-2.3-.6-11.9-2.4-4.7-.9-11.4-1.7-15-1.8-3.6 0-6-.3-5.3-.5.6-.3.9-1 .5-1.6-.4-.7.1-.6 1 .2.9.7 1.7.9 1.7.4 0-.6 1.1-.8 2.4-.6 1.3.3 3.6-.2 5.2-1l2.8-1.5-3-.6c-1.6-.3-4.1-.4-5.6-.2-1.6.2-2.8 0-2.8-.3 0-1.2-4.4-1-5.9.2-1.2.9-1.3.9-.7-.1.5-.9-1.1-1.2-6.9-1.2-5.8 0-7.4.3-6.9 1.2.6 1 .5 1-.7.1-.9-.7-4.1-1-8.9-.8-4.1.2-7.5.4-7.5.5 0 .1-2.4.3-5.3.5-3 .2-6 .9-6.7 1.5-.8.6-1.6.7-1.9.2-.8-1.4-5.7-.2-4.9 1.2.4.8.3.8-.6 0-1.2-1.2-5.1-.8-5.1.5 0 .3-1.7.7-3.8.8-5.3.2-14.2 2.4-13.7 3.3.3.5-.4.6-1.5.3s-2-.1-2 .3c0 .5-1.4 1-3.1 1-1.7.1-3.4.5-3.8 1-.3.5-1.3 1-2.1 1.1-1.9.2-16.2 5.3-17.5 6.3-.5.4-2.7 1.3-4.7 1.9-2.1.7-3.8 1.7-3.8 2.2 0 .5-.6.9-1.4.9-2.1 0-16.6 8-16.6 9.1 0 .6-.4.8-.9.4-.5-.3-1.2-.1-1.6.5-.3.5-2 1.6-3.8 2.5-3.9 1.8-26.5 18.7-28.9 21.5-.9 1.1-1.9 2-2.3 2-1.3 0-9 7.4-8.7 8.3.1.5-.1.6-.6.3-.9-.6-20.3 18-20 19.1.2.5-.1.9-.5 1-1.7.2-6.6 5.6-6.1 6.5.3.5.1.7-.4.6-.5-.2-3.7 3.1-7.1 7.2-3.5 4.1-7.1 8.5-8.2 9.8-1 1.2-1.9 2.5-1.9 3 0 .4-1.3 2-2.8 3.7-1.5 1.6-4.3 5.1-6 7.7-3.5 5.1-5.4 6.6-2.5 2 4-6.5 16.7-25.7 17.3-26.2.3-.3 1.7-2.1 3-4s3.1-4 4-4.7c.8-.7 1.2-1.3.9-1.3-.4 0 1.7-2.6 4.7-5.7 2.9-3.1 5-6.1 4.8-6.5-.3-.5-.2-.7.3-.6 1.1.4 7.3-5.9 6.5-6.6-.3-.3 0-.6.6-.6 1.7 0 7.4-5.9 6.7-7-.3-.5 0-.7.8-.4.8.3 2.7-1 4.5-3 1.7-2 3.6-3.6 4.2-3.6.5 0 1-.7 1-1.6 0-.8.4-1.3.9-1 .5.4 1.1.3 1.3-.2.1-.4 2.3-2.3 4.8-4.2 2.5-1.9 5.7-4.5 7.1-5.8 1.4-1.2 3.4-2.9 4.5-3.7 1.9-1.5 1.9-1.5-.1-.8-1.1.3-3.4 1.7-5.1 3-1.7 1.3-3.4 2.3-3.8 2.3-.6 0-6.4 3.8-7.6 5-.3.3-2.3 1.8-4.5 3.5-2.2 1.6-4.9 3.7-5.9 4.7-2.3 2.1-3.2 2.2-4.2.6-.4-.7-.3-.8.5-.4.7.4 3.3-1.5 6.7-4.8 4.9-4.9 5.3-5.6 3.7-6.5-1-.6-1.3-1.1-.6-1.1.6 0 1.5.5 1.9 1.2.5.8 1 .7 1.8-.3.6-.8 4.3-3.9 8.1-6.9 3.9-3 7.1-5.8 7.3-6.2.2-.3 3.2-2.5 6.8-4.8 3.5-2.3 6.4-4.7 6.4-5.3 0-.6.3-.7.7-.4.3.4 1.1.3 1.7-.2 1.6-1.3 10.9-6.5 21.1-11.8 9-4.7 9.5-4.9 11.6-5.2.5 0 .7-.6.3-1.3-.4-.6-.3-.8.4-.5.5.4 5-.8 9.9-2.7 4.9-1.8 9.8-3.6 10.8-3.9 2-.5 2-.5 0-.5-1.1 0-4.9.9-8.5 2zm96.5 4.7c.3.5.2 1.2-.3 1.5-.5.3-.9-.1-.9-.9 0-1.7.3-1.9 1.2-.6zm-12 2c.3.5.2 1.2-.3 1.5-.5.3-.9-.1-.9-.9 0-1.7.3-1.9 1.2-.6zm-32 1c.3.5.2 1.2-.3 1.5-.5.3-.9-.1-.9-.9 0-1.7.3-1.9 1.2-.6zm24.2.6c0 .8-.4 1.2-.9.9-.5-.3-.6-1-.3-1.5.9-1.3 1.2-1.1 1.2.6zm67.8 9.4c.3.5.2 1.2-.3 1.5-.5.3-.9-.1-.9-.9 0-1.7.3-1.9 1.2-.6zm-107.8 1.6c0 .8-.4 1.2-.9.9-.5-.3-.6-1-.3-1.5.9-1.3 1.2-1.1 1.2.6zm-32 5c0 .8-.4 1.2-.9.9-.5-.3-.6-1-.3-1.5.9-1.3 1.2-1.1 1.2.6zm5.3-.9c0 .8-1.9 1.3-2.4.6-.3-.5.1-.9.9-.9s1.5.2 1.5.3zm14.4.2c.3.5-.1.9-.9.9s-1.2-.4-.9-.9c.3-.4.7-.8.9-.8.2 0 .6.4.9.8zm141.7.9c1.3 1.6 1.2 1.7-.3.4-1-.7-1.8-1.5-1.8-1.7 0-.8.8-.3 2.1 1.3zm-121.4 3.8c0 .8-.4 1.2-.9.9-.5-.3-.6-1-.3-1.5.9-1.3 1.2-1.1 1.2.6zm-48.3 3.3c.3.5-.1.9-.9.9s-1.2-.4-.9-.9c.3-.4.7-.8.9-.8.2 0 .6.4.9.8zm41.6-.2c0 .8-1.9 1.3-2.4.6-.3-.5.1-.9.9-.9s1.5.2 1.5.3zm68 0c0 .8-1.9 1.3-2.4.6-.3-.5.1-.9.9-.9s1.5.2 1.5.3zm-49 4.8c-.7.7-1.3.7-2 0-.6-.6-.3-1 1-1s1.6.4 1 1zm35.7.1c0 .8-.4 1.2-.9.9-.5-.3-.6-1-.3-1.5.9-1.3 1.2-1.1 1.2.6zm39.8 2.4c.3.5.2 1.2-.3 1.5-.5.3-.9-.1-.9-.9 0-1.7.3-1.9 1.2-.6zm-112 1c.3.5.2 1.2-.3 1.5-.5.3-.9-.1-.9-.9 0-1.7.3-1.9 1.2-.6zm88.5-.3c0 .8-1.9 1.3-2.4.6-.3-.5.1-.9.9-.9s1.5.2 1.5.3zm-116.4 3.3c-.3.5-3.5 2-7.1 3.5-8.7 3.5-13.6 6.2-12.8 7 .4.4-.1.4-1.1 0-1.2-.4-1.7-.4-1.3.2.3.6-.3 1-1.2 1.1-1.7.1-19.9 10.8-21.1 12.4-.3.3-1.5 1.1-2.8 1.8-1.2.7-2 1.7-1.6 2.3.4.7.3.8-.5.4-1.9-1.2-20.5 13.9-19.4 15.7.3.6.1.7-.6.3-1.6-1-22.6 19.9-21.6 21.5.5.7.4 1-.2.6-1.8-1.1-15.9 16.6-14.7 18.5.4.6.3.8-.3.5-.6-.4-1.6 0-2.3.8-.7.8-1 1.5-.7 1.5.3 0-.5 1.2-1.8 2.6-2.7 2.9-3.3 5-1.2 3.8.7-.4.9-.3.4.2s-1.3.9-1.8.9-1 .4-1.1 1c-.1.5-.9 1.8-1.8 2.8-1.8 1.8-7.1 12.2-6.9 13.3 0 .4-.4 1-.9 1.3-1.5.9-6.2 10.8-5.5 11.5.4.3.1.6-.5.6-.7 0-1.2.5-1.2 1.1 0 .6-.6 2.5-1.4 4.2-.7 1.8-2.1 4.8-2.9 6.7-2.7 6.1-8 23.4-8.1 26.2-.1 1.6-.4 2.8-.7 2.8-.4 0-1.2 2.8-1.9 6.2-.6 3.5-1.4 7.6-1.8 9.3-.3 1.6-.6 4.5-.7 6.2 0 1.8-.3 3.3-.7 3.3-.4 0-.6 1.3-.4 3 .2 1.6.1 3.2-.2 3.5-.6.6-1 4-1.6 15.2-.3 5.8 0 8.3.8 8.3.7 0 .8.3.1.8-1.1.7-1.5 17.2-.5 17.2.3 0 .5 2.6.6 5.8.1 9.7.7 13.6 2.4 15 .8.8.9 1 .2.7-1.4-.8-1.4-.7.3 9.5.3 1.9.9 4.2 1.2 5 .3.8.7 2.6.9 4 .2 1.4.5 3.4.8 4.5.2 1.1.5 2.6.5 3.3.1.7.5 1.1 1 .8.5-.4.7.2.5 1.1-.3 1 .5 4.5 1.6 7.8 1.2 3.3 2.2 6.6 2.2 7.2.1.7.4 1.3.8 1.3s.7.6.7 1.3c0 .7.8 3.7 1.8 6.5 1.4 3.9 2.3 5.1 3.5 4.7 1.1-.5 1.2-.3.3.6-1.2 1.2.1 5.6 2 7 .5.3.8 1 .8 1.5-.1 1.8 1.1 4.4 2 4.4.6 0 .8.4.4.9-.8 1.3 3 7.3 4 6.3.5-.4.5-.2.2.5-.9 1.4 3.7 9.6 4.8 8.6.4-.5.5-.2 0 .6-.5.9-.1 1.9 1.1 2.8 1 .8 1.8 1.7 1.7 2.1 0 .4.3.6.9.4.5-.1.7.2.3.8-.7 1.1 2.4 7 3.7 7 .4 0 .8.5.8 1.1 0 1.3 11.4 16.5 15.2 20.2 1.5 1.5 2.8 2.9 2.8 3.2 0 1.4 11.4 12.3 12.4 11.8.6-.3.7-.2.3.2-.4.5 2.2 3.7 5.8 7.2 7.1 6.7 7 5.9 2.5 11.2-1.6 1.9-2.7 3.5-6.1 8.9-2 3-3.2 4.2-2.6 2.4.1-.4-.2-.9-.8-1.1-.5-.3-1.8-1.5-2.8-2.8-1-1.3-2.5-2.3-3.3-2.3-.8 0-1.3-.3-1.2-.8.4-1.4-10.2-11.3-11.4-10.6-.6.4-.8.3-.4-.4.8-1.3-6.4-9.3-7.7-8.5-.6.3-.7.1-.3-.5.3-.6-1.2-3.2-3.5-5.9-2.2-2.6-5.2-6.1-6.5-7.7-1.3-1.5-2.4-3.2-2.4-3.6 0-.5-.3-1-.7-1.2-1.1-.4-11.3-15.5-11.3-16.5 0-.5-.8-1.8-1.8-2.9-1-1-1.9-2.1-1.9-2.4-.5-2.4-2.8-5.8-3.6-5.3-.6.3-.7.1-.3-.5.4-.6-.6-3.5-2.2-6.4-1.7-2.9-4.2-8.2-5.7-11.8-1.5-3.6-3.5-8.1-4.3-10-.9-1.9-1.7-4-1.8-4.5-.2-.6-1.6-4.8-3.2-9.5-1.7-4.7-3.6-11.1-4.3-14.2-.7-3.1-1.7-5.5-2.1-5.2-.4.2-.5-.4-.3-1.5s-.3-4.8-1.2-8.3c-.8-3.5-1.5-7.5-1.4-9 .1-1.6-.2-2.8-.6-2.8-.5 0-.9-2.6-1.1-5.8-.2-5.7-.9-11.7-1.2-11.7-.6 0-.5-32.1 0-36.9.3-3.3.2-6-.4-6.6-.7-.7-.7-1 0-1 .5 0 1.1-1.6 1.2-3.6.2-2.6-.1-3.4-1-2.9-.7.4-.5 0 .4-.7 1-.9 1.5-2.5 1.4-4.1-.2-1.5 0-2.9.3-3.1.7-.5 1.4-5.1 1.5-10.3.1-1.7.4-2.9.7-2.7.4.2.9-1.4 1.3-3.7.3-2.2 1.2-5.8 2-7.9 1-2.9 1-4 .2-4-.7 0-.8-.3-.1-.8.6-.4 2.1-4 3.4-8 2-6.2 2.1-7.5 1-9-1.3-1.5-1.2-1.6.4-.3.9.7 1.7 1.1 1.7.9 0-.3 1.1-3.5 2.4-7.2 1.3-3.6 2.1-6.6 1.8-6.6-.4 0-.2-.4.4-.8 1.7-1.2 7.5-14.3 6.7-15.5-.3-.6-.1-.7.5-.3 1.1.6 1.6-.6 1.3-2.7 0-.4.4-.7 1-.7.5 0 .7-.5.4-1-.3-.6-.1-1 .5-1s1.4-.8 1.7-1.8c.4-.9 1.7-3.4 3-5.5s2.1-4.2 1.8-4.7c-.3-.5 0-1.2.6-1.6.8-.4.9-.3.5.4s-.5 1.2-.3 1.2c.3 0 1.7-2 3.1-4.4 1.4-2.4 4.2-6.5 6.1-9 1.9-2.5 3.3-4.6 3-4.6-.2 0 .6-1 1.8-2.3 3.6-3.7 7.2-8.9 7.1-10.3-.1-.7.4-1 1.2-.7.7.2 2.3-1 3.5-2.9 1.3-1.8 7.8-8.5 14.7-14.8 6.8-6.3 13.1-12.3 14-13.3.9-.9 2.2-1.7 2.8-1.7.7 0 1.4-.4 1.6-.9.2-.5 5.8-4.5 12.5-8.9 6.7-4.3 11.9-8.2 11.6-8.6-.4-.4 0-.4 1 0 1 .3 1.7.1 1.7-.5s.3-1 .8-.9c.4.1 5.4-2.1 11.2-5.1 5.8-2.9 10.6-5.2 10.8-5.2.1.1 1.9-.6 4-1.5 2-.9 4.4-1.8 5.2-2 .8-.2 2.3-.7 3.5-1.2 1.6-.7 10.2-3.9 11.3-4.1.2-.1.1.3-.2.8zm19.7.6c-.3.9-.8 1.4-1 1.1-.3-.3-.2-.9.2-1.5.9-1.6 1.5-1.3.8.4zm-55.6 1c0 .8-.4 1.2-.9.9-.5-.3-.6-1-.3-1.5.9-1.3 1.2-1.1 1.2.6zm191.8-.6c.3.5.2 1.2-.3 1.5-.5.3-.9-.1-.9-.9 0-1.7.3-1.9 1.2-.6zm-96 3c.3.5.2 1.2-.3 1.5-.5.3-.9-.1-.9-.9 0-1.7.3-1.9 1.2-.6zm-48.1.9c.3.5-.1.9-.9.9s-1.2-.4-.9-.9c.3-.4.7-.8.9-.8.2 0 .6.4.9.8zm152.6-.2c0 .8-1.9 1.3-2.4.6-.3-.5.1-.9.9-.9s1.5.2 1.5.3zm-238.6 3.3c-.2.3-1.2-.3-2.2-1.3-1.6-1.7-1.6-1.8.5-.5 1.2.7 2 1.5 1.7 1.8zm174.1 0c.3.5.2 1.2-.3 1.5-.5.3-.9-.1-.9-.9 0-1.7.3-1.9 1.2-.6zm48 0c.3.5.2 1.2-.3 1.5-.5.3-.9-.1-.9-.9 0-1.7.3-1.9 1.2-.6zm27.9 2.1c-.6.6-1 .3-1-1s.4-1.6 1-1c.7.7.7 1.3 0 2zm-163.7-.5c0 .8-.4 1.2-.9.9-.5-.3-.6-1-.3-1.5.9-1.3 1.2-1.1 1.2.6zm20.7-.7c.2.4-.4.8-1.4.8-1 0-1.6-.4-1.4-.8.3-.4.9-.8 1.4-.8.5 0 1.1.4 1.4.8zm19.1.1c.3.5.2 1.2-.3 1.5-.5.3-.9-.1-.9-.9 0-1.7.3-1.9 1.2-.6zm-63.8 4.6c0 .8-.4 1.2-.9.9-.5-.3-.6-1-.3-1.5.9-1.3 1.2-1.1 1.2.6zm88.7-.7c.3.5-.1.9-.9.9s-1.2-.4-.9-.9c.3-.4.7-.8.9-.8.2 0 .6.4.9.8zm36 0c.3.5-.1.9-.9.9s-1.2-.4-.9-.9c.3-.4.7-.8.9-.8.2 0 .6.4.9.8zm36.6-.2c0 .8-1.9 1.3-2.4.6-.3-.5.1-.9.9-.9s1.5.2 1.5.3zm30.5 3.3c.3.5.2 1.2-.3 1.5-.5.3-.9-.1-.9-.9 0-1.7.3-1.9 1.2-.6zM270 67.6c0 .8-1.9 1.3-2.4.6-.3-.5.1-.9.9-.9s1.5.2 1.5.3zm112 0c0 .8-1.9 1.3-2.4.6-.3-.5.1-.9.9-.9s1.5.2 1.5.3zm22.5.3c.3.5.2 1.2-.3 1.5-.5.3-.9-.1-.9-.9 0-1.7.3-1.9 1.2-.6zm-168 3c.3.5.2 1.2-.3 1.5-.5.3-.9-.1-.9-.9 0-1.7.3-1.9 1.2-.6zm152.2.6c0 .8-.4 1.2-.9.9-.5-.3-.6-1-.3-1.5.9-1.3 1.2-1.1 1.2.6zm-171.7.9c-.7.7-1.3.7-2 0-.6-.6-.3-1 1-1s1.6.4 1 1zm-11.6 3.4c.3.5-.1.9-.9.9s-1.2-.4-.9-.9c.3-.4.7-.8.9-.8.2 0 .6.4.9.8zm32.6-.2c0 .8-1.9 1.3-2.4.6-.3-.5.1-.9.9-.9s1.5.2 1.5.3zm102.5.3c.3.5.2 1.2-.3 1.5-.5.3-.9-.1-.9-.9 0-1.7.3-1.9 1.2-.6zm79.9-.1c.3.5-.1.9-.9.9s-1.2-.4-.9-.9c.3-.4.7-.8.9-.8.2 0 .6.4.9.8zm-191.9 4.1c.3.5.2 1.2-.3 1.5-.5.3-.9-.1-.9-.9 0-1.7.3-1.9 1.2-.6zm192.2.6c0 .8-.4 1.2-.9.9-.5-.3-.6-1-.3-1.5.9-1.3 1.2-1.1 1.2.6zm-200 3c0 .8-.4 1.2-.9.9-.5-.3-.6-1-.3-1.5.9-1.3 1.2-1.1 1.2.6zm-120.2.4c.3.5.2 1.2-.3 1.5-.5.3-.9-.1-.9-.9 0-1.7.3-1.9 1.2-.6zm20.2.6c0 .8-.4 1.2-.9.9-.5-.3-.6-1-.3-1.5.9-1.3 1.2-1.1 1.2.6zm40.8-.5c-.3.5-1.2 1-1.8 1-.7 0-.6-.4.3-1 1.9-1.2 2.3-1.2 1.5 0zm18.9-.2c.3.5-.1.9-.9.9s-1.2-.4-.9-.9c.3-.4.7-.8.9-.8.2 0 .6.4.9.8zm56.6-.2c0 .8-1.9 1.3-2.4.6-.3-.5.1-.9.9-.9s1.5.2 1.5.3zm8.4.2c.3.5-.1.9-.9.9s-1.2-.4-.9-.9c.3-.4.7-.8.9-.8.2 0 .6.4.9.8zm148.6-.2c0 .8-1.9 1.3-2.4.6-.3-.5.1-.9.9-.9s1.5.2 1.5.3zm14.4.2c.3.5-.1.9-.9.9s-1.2-.4-.9-.9c.3-.4.7-.8.9-.8.2 0 .6.4.9.8zM344.6 88c0 1.2-.4 1.6-.9 1.1s-.6-1.4-.3-2c1-1.5 1.2-1.4 1.2.9zm80 0c0 1.2-.4 1.6-.9 1.1s-.6-1.4-.3-2c1-1.5 1.2-1.4 1.2.9zm-331.9.5c0 .8-.4 1.2-.9.9-.5-.3-.6-1-.3-1.5.9-1.3 1.2-1.1 1.2.6zm88 0c0 .8-.4 1.2-.9.9-.5-.3-.6-1-.3-1.5.9-1.3 1.2-1.1 1.2.6zm-104 3c0 .8-.4 1.2-.9.9-.5-.3-.6-1-.3-1.5.9-1.3 1.2-1.1 1.2.6zm8 0c0 .8-.4 1.2-.9.9-.5-.3-.6-1-.3-1.5.9-1.3 1.2-1.1 1.2.6zm79.8-.6c.3.5.2 1.2-.3 1.5-.5.3-.9-.1-.9-.9 0-1.7.3-1.9 1.2-.6zm-51.5.7c0 .8-1.9 1.3-2.4.6-.3-.5.1-.9.9-.9s1.5.2 1.5.3zm32.4.2c.3.5-.1.9-.9.9s-1.2-.4-.9-.9c.3-.4.7-.8.9-.8.2 0 .6.4.9.8zm15.1 1c-.3.3-1.1 0-1.8-.7-.9-1-.8-1.1.6-.5 1 .3 1.5.9 1.2 1.2zm43.9-1c.3.5-.1.9-.9.9s-1.2-.4-.9-.9c.3-.4.7-.8.9-.8.2 0 .6.4.9.8zm44 0c.3.5-.1.9-.9.9s-1.2-.4-.9-.9c.3-.4.7-.8.9-.8.2 0 .6.4.9.8zm85 0c.3.5-.1.9-.9.9s-1.2-.4-.9-.9c.3-.4.7-.8.9-.8.2 0 .6.4.9.8zm27.6-.2c0 .8-1.9 1.3-2.4.6-.3-.5.1-.9.9-.9s1.5.2 1.5.3zm3.5.3c.3.5.2 1.2-.3 1.5-.5.3-.9-.1-.9-.9 0-1.7.3-1.9 1.2-.6zm72.9-.1c.3.5-.1.9-.9.9s-1.2-.4-.9-.9c.3-.4.7-.8.9-.8.2 0 .6.4.9.8zm-240.9 3.1c.3.5.2 1.2-.3 1.5-.5.3-.9-.1-.9-.9 0-1.7.3-1.9 1.2-.6zm248.2.6c0 .8-.4 1.2-.9.9-.5-.3-.6-1-.3-1.5.9-1.3 1.2-1.1 1.2.6zM149 99.6c0 .8-1.9 1.3-2.4.6-.3-.5.1-.9.9-.9s1.5.2 1.5.3zm31.7.9c0 .8-.4 1.2-.9.9-.5-.3-.6-1-.3-1.5.9-1.3 1.2-1.1 1.2.6zm24.7-.7c.3.5-.1.9-.9.9s-1.2-.4-.9-.9c.3-.4.7-.8.9-.8.2 0 .6.4.9.8zm204.6-.2c0 .8-1.9 1.3-2.4.6-.3-.5.1-.9.9-.9s1.5.2 1.5.3zm15 0c0 .8-1.9 1.3-2.4.6-.3-.5.1-.9.9-.9s1.5.2 1.5.3zM136.4 105c-.6.6-1 .3-1-1s.4-1.6 1-1c.7.7.7 1.3 0 2zm52.3-1.5c0 .8-.4 1.2-.9.9-.5-.3-.6-1-.3-1.5.9-1.3 1.2-1.1 1.2.6zm15.8.4c.3.5.2 1.2-.3 1.5-.5.3-.9-.1-.9-.9 0-1.7.3-1.9 1.2-.6zm192.2.6c0 .8-.4 1.2-.9.9-.5-.3-.6-1-.3-1.5.9-1.3 1.2-1.1 1.2.6zm-8 3c0 .8-.4 1.2-.9.9-.5-.3-.6-1-.3-1.5.9-1.3 1.2-1.1 1.2.6zm-159.3.3c.3.5-.1.9-.9.9s-1.2-.4-.9-.9c.3-.4.7-.8.9-.8.2 0 .6.4.9.8zm95.1.1c.3.5.2 1.2-.3 1.5-.5.3-.9-.1-.9-.9 0-1.7.3-1.9 1.2-.6zm19.9-.1c.3.5-.1.9-.9.9s-1.2-.4-.9-.9c.3-.4.7-.8.9-.8.2 0 .6.4.9.8zm32 0c.3.5-.1.9-.9.9s-1.2-.4-.9-.9c.3-.4.7-.8.9-.8.2 0 .6.4.9.8zm45.6-.2c0 .8-1.9 1.3-2.4.6-.3-.5.1-.9.9-.9s1.5.2 1.5.3zm-185.7 3.9c-.3.9-.8 1.4-1 1.1-.3-.3-.2-.9.2-1.5.9-1.6 1.5-1.3.8.4zm80.2-.6c.3.5.2 1.2-.3 1.5-.5.3-.9-.1-.9-.9 0-1.7.3-1.9 1.2-.6zm-31.5.5c0 .3-.4.8-1 1.1-.5.3-1 .1-1-.4 0-.6.5-1.1 1-1.1.6 0 1 .2 1 .4zm-144.3 4.1c0 .8-.4 1.2-.9.9-.5-.3-.6-1-.3-1.5.9-1.3 1.2-1.1 1.2.6zm24 0c0 .8-.4 1.2-.9.9-.5-.3-.6-1-.3-1.5.9-1.3 1.2-1.1 1.2.6zm287.8-.6c.3.5.2 1.2-.3 1.5-.5.3-.9-.1-.9-.9 0-1.7.3-1.9 1.2-.6zm-330.5.7c0 .8-1.9 1.3-2.4.6-.3-.5.1-.9.9-.9s1.5.2 1.5.3zm34.7.9c0 .8-.4 1.2-.9.9-.5-.3-.6-1-.3-1.5.9-1.3 1.2-1.1 1.2.6zm12.7-.7c.3.5-.1.9-.9.9s-1.2-.4-.9-.9c.3-.4.7-.8.9-.8.2 0 .6.4.9.8zm15.6-.2c0 .8-1.9 1.3-2.4.6-.3-.5.1-.9.9-.9s1.5.2 1.5.3zm-72.6 8.2c.3.5-.1.9-.9.9s-1.2-.4-.9-.9c.3-.4.7-.8.9-.8.2 0 .6.4.9.8zm12.6-.2c0 .8-1.9 1.3-2.4.6-.3-.5.1-.9.9-.9s1.5.2 1.5.3zm35.4.2c.3.5-.1.9-.9.9s-1.2-.4-.9-.9c.3-.4.7-.8.9-.8.2 0 .6.4.9.8zm21.6-.2c0 .8-1.9 1.3-2.4.6-.3-.5.1-.9.9-.9s1.5.2 1.5.3zm251.4.2c.3.5-.1.9-.9.9s-1.2-.4-.9-.9c.3-.4.7-.8.9-.8.2 0 .6.4.9.8zm39 0c.3.5-.1.9-.9.9s-1.2-.4-.9-.9c.3-.4.7-.8.9-.8.2 0 .6.4.9.8zm-43.7 7.7c0 .8-.4 1.2-.9.9-.5-.3-.6-1-.3-1.5.9-1.3 1.2-1.1 1.2.6zm23.8-.6c.3.5.2 1.2-.3 1.5-.5.3-.9-.1-.9-.9 0-1.7.3-1.9 1.2-.6zm-375 1.1c.3.6-.1.7-.9.4-1.8-.7-2.1-1.4-.7-1.4.6 0 1.3.4 1.6 1zm30.9-.2c.3.5-.1.9-.9.9s-1.2-.4-.9-.9c.3-.4.7-.8.9-.8.2 0 .6.4.9.8zm32.6-.2c0 .8-1.9 1.3-2.4.6-.3-.5.1-.9.9-.9s1.5.2 1.5.3zm292.4.2c.3.5-.1.9-.9.9s-1.2-.4-.9-.9c.3-.4.7-.8.9-.8.2 0 .6.4.9.8zm15 0c.3.5-.1.9-.9.9s-1.2-.4-.9-.9c.3-.4.7-.8.9-.8.2 0 .6.4.9.8zm-31.8 3.7c-.1.8-.5 1.7-.8 2.1-.5.4-.4-1.6.1-3.4.3-.9.9.1.7 1.3zm24.8.3c.2.4-.4.8-1.4.8-1 0-1.6-.4-1.4-.8.3-.4.9-.8 1.4-.8.5 0 1.1.4 1.4.8zm43.1 3.1c.3.5.2 1.2-.3 1.5-.5.3-.9-.1-.9-.9 0-1.7.3-1.9 1.2-.6zm-379.1.9c.3.5-.1.9-.9.9s-1.2-.4-.9-.9c.3-.4.7-.8.9-.8.2 0 .6.4.9.8zm15.6-.2c0 .8-1.9 1.3-2.4.6-.3-.5.1-.9.9-.9s1.5.2 1.5.3zm3.5.3c.3.5.2 1.2-.3 1.5-.5.3-.9-.1-.9-.9 0-1.7.3-1.9 1.2-.6zm32.2.6c0 .8-.4 1.2-.9.9-.5-.3-.6-1-.3-1.5.9-1.3 1.2-1.1 1.2.6zm-112.3 7.3c.3.5-.1.9-.9.9s-1.2-.4-.9-.9c.3-.4.7-.8.9-.8.2 0 .6.4.9.8zm69.6-.4c0 .2-.8 1-1.7 1.7-1.6 1.3-1.7 1.2-.4-.4 1.3-1.6 2.1-2.1 2.1-1.3zm28 .2c0 .8-1.9 1.3-2.4.6-.3-.5.1-.9.9-.9s1.5.2 1.5.3zm271 0c0 .8-1.9 1.3-2.4.6-.3-.5.1-.9.9-.9s1.5.2 1.5.3zm64.4.2c.3.5-.1.9-.9.9s-1.2-.4-.9-.9c.3-.4.7-.8.9-.8.2 0 .6.4.9.8zm-32.9 3.1c.3.5.2 1.2-.3 1.5-.5.3-.9-.1-.9-.9 0-1.7.3-1.9 1.2-.6zm-356 1.9c-.3.3-1.1 0-1.8-.7-.9-1-.8-1.1.6-.5 1 .3 1.5.9 1.2 1.2zm12-.9c.3.5.2 1.2-.3 1.5-.5.3-.9-.1-.9-.9 0-1.7.3-1.9 1.2-.6zm52.9-.1c.2.4-.4.8-1.4.8-1 0-1.6-.4-1.4-.8.3-.4.9-.8 1.4-.8.5 0 1.1.4 1.4.8zm323.1.1c.3.5.2 1.2-.3 1.5-.5.3-.9-.1-.9-.9 0-1.7.3-1.9 1.2-.6zm-15.8 3.6c0 .8-.4 1.2-.9.9-.5-.3-.6-1-.3-1.5.9-1.3 1.2-1.1 1.2.6zm-400.2.5c.3.5.1 1-.4 1-.6 0-1.1-.5-1.1-1 0-.6.2-1 .4-1 .3 0 .8.4 1.1 1zm101 0c.3.6-.1.7-.9.4-1.8-.7-2.1-1.4-.7-1.4.6 0 1.3.4 1.6 1zm259.9-.2c.3.5-.1.9-.9.9s-1.2-.4-.9-.9c.3-.4.7-.8.9-.8.2 0 .6.4.9.8zm24.6-.2c0 .8-1.9 1.3-2.4.6-.3-.5.1-.9.9-.9s1.5.2 1.5.3zm-405.4 3.9c-.1.8-.5 1.7-.8 2.1-.5.4-.4-1.6.1-3.4.3-.9.9.1.7 1.3zm388.4-1.1c0 .2-.8 1-1.7 1.7-1.6 1.3-1.7 1.2-.4-.4 1.3-1.6 2.1-2.1 2.1-1.3zm-64.3 2.1c0 .8-.4 1.2-.9.9-.5-.3-.6-1-.3-1.5.9-1.3 1.2-1.1 1.2.6zm24 0c0 .8-.4 1.2-.9.9-.5-.3-.6-1-.3-1.5.9-1.3 1.2-1.1 1.2.6zm44.3-.5c0 .5-.5 1-1.1 1-.5 0-.7-.5-.4-1 .3-.6.8-1 1.1-1 .2 0 .4.4.4 1zm-132.5 2.9c.3.5.2 1.2-.3 1.5-.5.3-.9-.1-.9-.9 0-1.7.3-1.9 1.2-.6zm112 0c.3.5.2 1.2-.3 1.5-.5.3-.9-.1-.9-.9 0-1.7.3-1.9 1.2-.6zm-327.5.7c0 .8-1.9 1.3-2.4.6-.3-.5.1-.9.9-.9s1.5.2 1.5.3zm9 0c0 .8-1.9 1.3-2.4.6-.3-.5.1-.9.9-.9s1.5.2 1.5.3zm92 0c0 .8-1.9 1.3-2.4.6-.3-.5.1-.9.9-.9s1.5.2 1.5.3zm26.4.2c.3.5-.1.9-.9.9s-1.2-.4-.9-.9c.3-.4.7-.8.9-.8.2 0 .6.4.9.8zm72.6-.2c0 .8-1.9 1.3-2.4.6-.3-.5.1-.9.9-.9s1.5.2 1.5.3zm11.4.2c.3.5-.1.9-.9.9s-1.2-.4-.9-.9c.3-.4.7-.8.9-.8.2 0 .6.4.9.8zm61.6-.2c0 .8-1.9 1.3-2.4.6-.3-.5.1-.9.9-.9s1.5.2 1.5.3zm23.4.2c.3.5-.1.9-.9.9s-1.2-.4-.9-.9c.3-.4.7-.8.9-.8.2 0 .6.4.9.8zm27 0c.3.5-.1.9-.9.9s-1.2-.4-.9-.9c.3-.4.7-.8.9-.8.2 0 .6.4.9.8zm97.6-.2c0 .8-1.9 1.3-2.4.6-.3-.5.1-.9.9-.9s1.5.2 1.5.3zm-349.5 3.3c.3.5.2 1.2-.3 1.5-.5.3-.9-.1-.9-.9 0-1.7.3-1.9 1.2-.6zm72.2.6c0 .8-.4 1.2-.9.9-.5-.3-.6-1-.3-1.5.9-1.3 1.2-1.1 1.2.6zm163.9.5c0 1.2-.4 1.6-.9 1.1s-.6-1.4-.3-2c1-1.5 1.2-1.4 1.2.9zm-220.2.6c.3.8.2 1.2-.4.9-.6-.3-1-1-1-1.6 0-1.4.7-1.1 1.4.7zm40.3-.1c0 .8-.4 1.2-.9.9-.5-.3-.6-1-.3-1.5.9-1.3 1.2-1.1 1.2.6zm167.8-.6c.3.5.2 1.2-.3 1.5-.5.3-.9-.1-.9-.9 0-1.7.3-1.9 1.2-.6zm112.2.6c0 .8-.4 1.2-.9.9-.5-.3-.6-1-.3-1.5.9-1.3 1.2-1.1 1.2.6zm-8 3c0 .8-.4 1.2-.9.9-.5-.3-.6-1-.3-1.5.9-1.3 1.2-1.1 1.2.6zm-368.3.3c.3.5-.1.9-.9.9s-1.2-.4-.9-.9c.3-.4.7-.8.9-.8.2 0 .6.4.9.8zm9 0c.3.5-.1.9-.9.9s-1.2-.4-.9-.9c.3-.4.7-.8.9-.8.2 0 .6.4.9.8zm63.6-.2c0 .8-1.9 1.3-2.4.6-.3-.5.1-.9.9-.9s1.5.2 1.5.3zm40 0c0 .8-1.9 1.3-2.4.6-.3-.5.1-.9.9-.9s1.5.2 1.5.3zm239.4.2c.3.5-.1.9-.9.9s-1.2-.4-.9-.9c.3-.4.7-.8.9-.8.2 0 .6.4.9.8zm9 0c.3.5-.1.9-.9.9s-1.2-.4-.9-.9c.3-.4.7-.8.9-.8.2 0 .6.4.9.8zm31.6-.2c0 .8-1.9 1.3-2.4.6-.3-.5.1-.9.9-.9s1.5.2 1.5.3zm-304 2.8c0 .2-.8 1-1.7 1.7-1.6 1.3-1.7 1.2-.4-.4 1.3-1.6 2.1-2.1 2.1-1.3zm183.7 1.1c0 .8-.4 1.2-.9.9-.5-.3-.6-1-.3-1.5.9-1.3 1.2-1.1 1.2.6zm-264.2.4c.3.5.2 1.2-.3 1.5-.5.3-.9-.1-.9-.9 0-1.7.3-1.9 1.2-.6zm352 0c.3.5.2 1.2-.3 1.5-.5.3-.9-.1-.9-.9 0-1.7.3-1.9 1.2-.6zm25.5-.5c0 .2-.8 1-1.7 1.7-1.6 1.3-1.7 1.2-.4-.4 1.3-1.6 2.1-2.1 2.1-1.3zm-369.5 3.5c.3.5.2 1.2-.3 1.5-.5.3-.9-.1-.9-.9 0-1.7.3-1.9 1.2-.6zm-48 1c.3.5.2 1.2-.3 1.5-.5.3-.9-.1-.9-.9 0-1.7.3-1.9 1.2-.6zm136 0c.3.5.2 1.2-.3 1.5-.5.3-.9-.1-.9-.9 0-1.7.3-1.9 1.2-.6zm73.5-.3c0 .8-1.9 1.3-2.4.6-.3-.5.1-.9.9-.9s1.5.2 1.5.3zm95 0c0 .8-1.9 1.3-2.4.6-.3-.5.1-.9.9-.9s1.5.2 1.5.3zm27.1 1.1c1.3 1.6 1.2 1.7-.3.4-1.7-1.3-2.2-2.1-1.4-2.1.2 0 1 .8 1.7 1.7zm92.9-1.1c0 .8-1.9 1.3-2.4.6-.3-.5.1-.9.9-.9s1.5.2 1.5.3zm-336.5 3.3c.3.5.2 1.2-.3 1.5-.5.3-.9-.1-.9-.9 0-1.7.3-1.9 1.2-.6zm40 0c.3.5.2 1.2-.3 1.5-.5.3-.9-.1-.9-.9 0-1.7.3-1.9 1.2-.6zm280 0c.3.5.2 1.2-.3 1.5-.5.3-.9-.1-.9-.9 0-1.7.3-1.9 1.2-.6zM377 184.4c-.7.7-1.3.7-2 0-.6-.6-.3-1 1-1s1.6.4 1 1zm51.7.1c0 .8-.4 1.2-.9.9-.5-.3-.6-1-.3-1.5.9-1.3 1.2-1.1 1.2.6zm7.8-.6c.3.5.2 1.2-.3 1.5-.5.3-.9-.1-.9-.9 0-1.7.3-1.9 1.2-.6zm-23.8 3.6c0 .8-.4 1.2-.9.9-.5-.3-.6-1-.3-1.5.9-1.3 1.2-1.1 1.2.6zm8 0c0 .8-.4 1.2-.9.9-.5-.3-.6-1-.3-1.5.9-1.3 1.2-1.1 1.2.6zm23.8-.6c.3.5.2 1.2-.3 1.5-.5.3-.9-.1-.9-.9 0-1.7.3-1.9 1.2-.6zm-363.1.9c.3.5-.1.9-.9.9s-1.2-.4-.9-.9c.3-.4.7-.8.9-.8.2 0 .6.4.9.8zm19.3.7c0 .8-.4 1.2-.9.9-.5-.3-.6-1-.3-1.5.9-1.3 1.2-1.1 1.2.6zm5.3-.9c0 .8-1.9 1.3-2.4.6-.3-.5.1-.9.9-.9s1.5.2 1.5.3zm26.5.3c.3.5.2 1.2-.3 1.5-.5.3-.9-.1-.9-.9 0-1.7.3-1.9 1.2-.6zm16.9-.1c.3.5-.1.9-.9.9s-1.2-.4-.9-.9c.3-.4.7-.8.9-.8.2 0 .6.4.9.8zm36 0c.3.5-.1.9-.9.9s-1.2-.4-.9-.9c.3-.4.7-.8.9-.8.2 0 .6.4.9.8zm15.6-.4c0 .2-.7.7-1.6 1-.8.3-1.2.2-.9-.4.6-1 2.5-1.4 2.5-.6zm75.5.5c.3.5.2 1.2-.3 1.5-.5.3-.9-.1-.9-.9 0-1.7.3-1.9 1.2-.6zm88.2.6c0 .8-.4 1.2-.9.9-.5-.3-.6-1-.3-1.5.9-1.3 1.2-1.1 1.2.6zm5.3-.9c0 .8-1.9 1.3-2.4.6-.3-.5.1-.9.9-.9s1.5.2 1.5.3zm14.1 1.1c1.3 1.6 1.2 1.7-.3.4-1-.7-1.8-1.5-1.8-1.7 0-.8.8-.3 2.1 1.3zm68.6-.2c0 .8-.4 1.2-.9.9-.5-.3-.6-1-.3-1.5.9-1.3 1.2-1.1 1.2.6zm5.3-.9c0 .8-1.9 1.3-2.4.6-.3-.5.1-.9.9-.9s1.5.2 1.5.3zm36 0c0 .8-1.9 1.3-2.4.6-.3-.5.1-.9.9-.9s1.5.2 1.5.3zm19.1 4.1c1.3 1.6 1.2 1.7-.3.4-1.7-1.3-2.2-2.1-1.4-2.1.2 0 1 .8 1.7 1.7zm-318.5.5c.3.4-.1.5-1 .4-.8-.1-1.8-.5-2.2-.8-.3-.4.1-.5 1-.4.8.1 1.8.5 2.2.8zm29.4-.6c0 .8-1.9 1.3-2.4.6-.3-.5.1-.9.9-.9s1.5.2 1.5.3zm177.5.4c-.3.5-1.2 1-1.8 1-.7 0-.6-.4.3-1 1.9-1.2 2.3-1.2 1.5 0zm31.5-.6c0 .2-.7.7-1.6 1-.8.3-1.2.2-.9-.4.6-1 2.5-1.4 2.5-.6zm-52.3 4.1c0 .8-.4 1.2-.9.9-.5-.3-.6-1-.3-1.5.9-1.3 1.2-1.1 1.2.6zm-264.3.3c.3.5-.1.9-.9.9s-1.2-.4-.9-.9c.3-.4.7-.8.9-.8.2 0 .6.4.9.8zm28.1 1c-.3.3-1.1 0-1.8-.7-.9-1-.8-1.1.6-.5 1 .3 1.5.9 1.2 1.2zm85.5-1.2c0 .8-1.9 1.3-2.4.6-.3-.5.1-.9.9-.9s1.5.2 1.5.3zm50.4.2c.3.5-.1.9-.9.9s-1.2-.4-.9-.9c.3-.4.7-.8.9-.8.2 0 .6.4.9.8zm108.3.7c0 .8-.4 1.2-.9.9-.5-.3-.6-1-.3-1.5.9-1.3 1.2-1.1 1.2.6zm23.8-.6c.3.5.2 1.2-.3 1.5-.5.3-.9-.1-.9-.9 0-1.7.3-1.9 1.2-.6zm8 0c.3.5.2 1.2-.3 1.5-.5.3-.9-.1-.9-.9 0-1.7.3-1.9 1.2-.6zm52.5-.3c0 .8-1.9 1.3-2.4.6-.3-.5.1-.9.9-.9s1.5.2 1.5.3zm36 0c0 .8-1.9 1.3-2.4.6-.3-.5.1-.9.9-.9s1.5.2 1.5.3zm11.4.2c.3.5-.1.9-.9.9s-1.2-.4-.9-.9c.3-.4.7-.8.9-.8.2 0 .6.4.9.8zm-123.7 3.7c0 .8-.4 1.2-.9.9-.5-.3-.6-1-.3-1.5.9-1.3 1.2-1.1 1.2.6zm7.8-.6c.3.5.2 1.2-.3 1.5-.5.3-.9-.1-.9-.9 0-1.7.3-1.9 1.2-.6zm-336 1c.3.5.2 1.2-.3 1.5-.5.3-.9-.1-.9-.9 0-1.7.3-1.9 1.2-.6zm48.2.6c0 .8-.4 1.2-.9.9-.5-.3-.6-1-.3-1.5.9-1.3 1.2-1.1 1.2.6zm63.8-.6c.3.5.2 1.2-.3 1.5-.5.3-.9-.1-.9-.9 0-1.7.3-1.9 1.2-.6zm24.2.6c0 .8-.4 1.2-.9.9-.5-.3-.6-1-.3-1.5.9-1.3 1.2-1.1 1.2.6zm87.8-.6c.3.5.2 1.2-.3 1.5-.5.3-.9-.1-.9-.9 0-1.7.3-1.9 1.2-.6zm191.6 1.4c-1 .9-1.1.8-.5-.6.3-1 .9-1.5 1.2-1.2.3.3 0 1.1-.7 1.8zm-407.6 1.6c.3.5.2 1.2-.3 1.5-.5.3-.9-.1-.9-.9 0-1.7.3-1.9 1.2-.6zm112 0c.3.5.2 1.2-.3 1.5-.5.3-.9-.1-.9-.9 0-1.7.3-1.9 1.2-.6zm8.2.6c0 .8-.4 1.2-.9.9-.5-.3-.6-1-.3-1.5.9-1.3 1.2-1.1 1.2.6zm220.4.2c1.3 1.6 1.2 1.7-.3.4-1.7-1.3-2.2-2.1-1.4-2.1.2 0 1 .8 1.7 1.7zm-327.7.1c.3.5-.1.9-.9.9s-1.2-.4-.9-.9c.3-.4.7-.8.9-.8.2 0 .6.4.9.8zm12 0c.3.5-.1.9-.9.9s-1.2-.4-.9-.9c.3-.4.7-.8.9-.8.2 0 .6.4.9.8zm47.3.7c0 .8-.4 1.2-.9.9-.5-.3-.6-1-.3-1.5.9-1.3 1.2-1.1 1.2.6zm5.3-.9c0 .8-1.9 1.3-2.4.6-.3-.5.1-.9.9-.9s1.5.2 1.5.3zm306.4.2c.3.5-.1.9-.9.9s-1.2-.4-.9-.9c.3-.4.7-.8.9-.8.2 0 .6.4.9.8zm9.6-.2c0 .8-1.9 1.3-2.4.6-.3-.5.1-.9.9-.9s1.5.2 1.5.3zm10.5 2.3c.3.5.2 1.2-.3 1.5-.5.3-.9-.1-.9-.9 0-1.7.3-1.9 1.2-.6zm-371.5.5c0 .2-.8 1-1.7 1.7-1.6 1.3-1.7 1.2-.4-.4 1.3-1.6 2.1-2.1 2.1-1.3zm343.5.5c.3.5.2 1.2-.3 1.5-.5.3-.9-.1-.9-.9 0-1.7.3-1.9 1.2-.6zm-387.1.9c.3.5-.1.9-.9.9s-1.5-.4-1.5-.9c0-.4.4-.8.9-.8.6 0 1.2.4 1.5.8zm106.7.9c1.3 1.6 1.2 1.7-.3.4-1-.7-1.8-1.5-1.8-1.7 0-.8.8-.3 2.1 1.3zm41.9-1.3c0 .2-.8 1-1.7 1.7-1.6 1.3-1.7 1.2-.4-.4 1.3-1.6 2.1-2.1 2.1-1.3zm230.5.5c.3.5.2 1.2-.3 1.5-.5.3-.9-.1-.9-.9 0-1.7.3-1.9 1.2-.6zm-136 3c.3.5.2 1.2-.3 1.5-.5.3-.9-.1-.9-.9 0-1.7.3-1.9 1.2-.6zm192.2.6c0 .8-.4 1.2-.9.9-.5-.3-.6-1-.3-1.5.9-1.3 1.2-1.1 1.2.6zm-424 1c0 .8-.4 1.2-.9.9-.5-.3-.6-1-.3-1.5.9-1.3 1.2-1.1 1.2.6zm12.7-.7c.3.5-.1.9-.9.9s-1.2-.4-.9-.9c.3-.4.7-.8.9-.8.2 0 .6.4.9.8zm35.1.1c.3.5.2 1.2-.3 1.5-.5.3-.9-.1-.9-.9 0-1.7.3-1.9 1.2-.6zm41.5-.3c0 .8-1.9 1.3-2.4.6-.3-.5.1-.9.9-.9s1.5.2 1.5.3zm55 0c0 .8-1.9 1.3-2.4.6-.3-.5.1-.9.9-.9s1.5.2 1.5.3zm8.4.2c.3.5-.1.9-.9.9s-1.2-.4-.9-.9c.3-.4.7-.8.9-.8.2 0 .6.4.9.8zm127 0c.3.5-.1.9-.9.9s-1.2-.4-.9-.9c.3-.4.7-.8.9-.8.2 0 .6.4.9.8zm149 0c.3.5-.1.9-.9.9s-1.2-.4-.9-.9c.3-.4.7-.8.9-.8.2 0 .6.4.9.8zm12 0c.3.5-.1.9-.9.9s-1.2-.4-.9-.9c.3-.4.7-.8.9-.8.2 0 .6.4.9.8zm-400.9 3.1c.3.5.2 1.2-.3 1.5-.5.3-.9-.1-.9-.9 0-1.7.3-1.9 1.2-.6zm16.3 1.6c-.3.3-.9-.2-1.2-1.2-.6-1.4-.5-1.5.5-.6.7.7 1 1.5.7 1.8zm47.9-1c0 .8-.4 1.2-.9.9-.5-.3-.6-1-.3-1.5.9-1.3 1.2-1.1 1.2.6zm23.8-.6c.3.5.2 1.2-.3 1.5-.5.3-.9-.1-.9-.9 0-1.7.3-1.9 1.2-.6zm235.9 2.1c-.6.6-1 .3-1-1s.4-1.6 1-1c.7.7.7 1.3 0 2zm-83.7-.5c0 .8-.4 1.2-.9.9-.5-.3-.6-1-.3-1.5.9-1.3 1.2-1.1 1.2.6zm103.8-.6c.3.5.2 1.2-.3 1.5-.5.3-.9-.1-.9-.9 0-1.7.3-1.9 1.2-.6zm8 0c.3.5.2 1.2-.3 1.5-.5.3-.9-.1-.9-.9 0-1.7.3-1.9 1.2-.6zm-183.8 3.6c0 .8-.4 1.2-.9.9-.5-.3-.6-1-.3-1.5.9-1.3 1.2-1.1 1.2.6zm87.8-.6c.3.5.2 1.2-.3 1.5-.5.3-.9-.1-.9-.9 0-1.7.3-1.9 1.2-.6zm104 0c.3.5.2 1.2-.3 1.5-.5.3-.9-.1-.9-.9 0-1.7.3-1.9 1.2-.6zm-396.1.9c.3.5-.1.9-.9.9s-1.2-.4-.9-.9c.3-.4.7-.8.9-.8.2 0 .6.4.9.8zm76 0c.3.5-.1.9-.9.9s-1.2-.4-.9-.9c.3-.4.7-.8.9-.8.2 0 .6.4.9.8zm24.6-.2c0 .8-1.9 1.3-2.4.6-.3-.5.1-.9.9-.9s1.5.2 1.5.3zm25 0c0 .8-1.9 1.3-2.4.6-.3-.5.1-.9.9-.9s1.5.2 1.5.3zm202.4.2c.3.5-.1.9-.9.9s-1.2-.4-.9-.9c.3-.4.7-.8.9-.8.2 0 .6.4.9.8zm12.3.7c0 .8-.4 1.2-.9.9-.5-.3-.6-1-.3-1.5.9-1.3 1.2-1.1 1.2.6zm5.3-.9c0 .8-1.9 1.3-2.4.6-.3-.5.1-.9.9-.9s1.5.2 1.5.3zm71-.2c0 .2-.7.7-1.6 1-.8.3-1.2.2-.9-.4.6-1 2.5-1.4 2.5-.6zm23.4.4c.3.5-.1.9-.9.9s-1.2-.4-.9-.9c.3-.4.7-.8.9-.8.2 0 .6.4.9.8zm-371.3 3.9c1.3 1.6 1.2 1.7-.3.4-1.7-1.3-2.2-2.1-1.4-2.1.2 0 1 .8 1.7 1.7zm160 0c1.3 1.6 1.2 1.7-.3.4-1.7-1.3-2.2-2.1-1.4-2.1.2 0 1 .8 1.7 1.7zm135.4-.8c.3.5.2 1.2-.3 1.5-.5.3-.9-.1-.9-.9 0-1.7.3-1.9 1.2-.6zm-300.1 1.7c.3.8.2 1.2-.4.9-.6-.3-1-1-1-1.6 0-1.4.7-1.1 1.4.7zm256.6-1.2c0 .2-.7.7-1.6 1-.8.3-1.2.2-.9-.4.6-1 2.5-1.4 2.5-.6zm5 0c0 .2-.8 1-1.7 1.7-1.6 1.3-1.7 1.2-.4-.4 1.3-1.6 2.1-2.1 2.1-1.3zm-337.3 4.1c0 .8-.4 1.2-.9.9-.5-.3-.6-1-.3-1.5.9-1.3 1.2-1.1 1.2.6zm96 0c0 .8-.4 1.2-.9.9-.5-.3-.6-1-.3-1.5.9-1.3 1.2-1.1 1.2.6zm55.8-.6c.3.5.2 1.2-.3 1.5-.5.3-.9-.1-.9-.9 0-1.7.3-1.9 1.2-.6zm-164 1c.3.5.2 1.2-.3 1.5-.5.3-.9-.1-.9-.9 0-1.7.3-1.9 1.2-.6zm16.9-.1c.3.5-.1.9-.9.9s-1.2-.4-.9-.9c.3-.4.7-.8.9-.8.2 0 .6.4.9.8zm44 0c.3.5-.1.9-.9.9s-1.2-.4-.9-.9c.3-.4.7-.8.9-.8.2 0 .6.4.9.8zm20.6-.2c0 .8-1.9 1.3-2.4.6-.3-.5.1-.9.9-.9s1.5.2 1.5.3zm31.4.2c.3.5-.1.9-.9.9s-1.2-.4-.9-.9c.3-.4.7-.8.9-.8.2 0 .6.4.9.8zm47 0c.3.5-.1.9-.9.9s-1.2-.4-.9-.9c.3-.4.7-.8.9-.8.2 0 .6.4.9.8zm156.1.1c.3.5.2 1.2-.3 1.5-.5.3-.9-.1-.9-.9 0-1.7.3-1.9 1.2-.6zm15.9-.1c.3.5-.1.9-.9.9s-1.2-.4-.9-.9c.3-.4.7-.8.9-.8.2 0 .6.4.9.8zm24.6-.2c0 .8-1.9 1.3-2.4.6-.3-.5.1-.9.9-.9s1.5.2 1.5.3zm33 0c0 .8-1.9 1.3-2.4.6-.3-.5.1-.9.9-.9s1.5.2 1.5.3zm14.5.3c.3.5.2 1.2-.3 1.5-.5.3-.9-.1-.9-.9 0-1.7.3-1.9 1.2-.6zm33.5-.3c0 .8-1.9 1.3-2.4.6-.3-.5.1-.9.9-.9s1.5.2 1.5.3zm-217.3 3.9c0 .8-.4 1.2-.9.9-.5-.3-.6-1-.3-1.5.9-1.3 1.2-1.1 1.2.6zm80 0c0 .8-.4 1.2-.9.9-.5-.3-.6-1-.3-1.5.9-1.3 1.2-1.1 1.2.6zm95.8-.6c.3.5.2 1.2-.3 1.5-.5.3-.9-.1-.9-.9 0-1.7.3-1.9 1.2-.6zm24.2.6c0 .8-.4 1.2-.9.9-.5-.3-.6-1-.3-1.5.9-1.3 1.2-1.1 1.2.6zm27.9.5c0 1.2-.4 1.6-.9 1.1s-.6-1.4-.3-2c1-1.5 1.2-1.4 1.2.9zm-212.1-.1c.3.5.2 1.2-.3 1.5-.5.3-.9-.1-.9-.9 0-1.7.3-1.9 1.2-.6zm96.2.6c0 .8-.4 1.2-.9.9-.5-.3-.6-1-.3-1.5.9-1.3 1.2-1.1 1.2.6zm-88.2 2.4c.3.5.2 1.2-.3 1.5-.5.3-.9-.1-.9-.9 0-1.7.3-1.9 1.2-.6zm-272 1c.3.5.2 1.2-.3 1.5-.5.3-.9-.1-.9-.9 0-1.7.3-1.9 1.2-.6zm72.2.6c0 .8-.4 1.2-.9.9-.5-.3-.6-1-.3-1.5.9-1.3 1.2-1.1 1.2.6zm5.3-.9c0 .8-1.9 1.3-2.4.6-.3-.5.1-.9.9-.9s1.5.2 1.5.3zm14.4.2c.3.5-.1.9-.9.9s-1.2-.4-.9-.9c.3-.4.7-.8.9-.8.2 0 .6.4.9.8zm20.6-.2c0 .8-1.9 1.3-2.4.6-.3-.5.1-.9.9-.9s1.5.2 1.5.3zm8.4.2c.3.5-.1.9-.9.9s-1.2-.4-.9-.9c.3-.4.7-.8.9-.8.2 0 .6.4.9.8zm127.6-.2c0 .8-1.9 1.3-2.4.6-.3-.5.1-.9.9-.9s1.5.2 1.5.3zm80 0c0 .8-1.9 1.3-2.4.6-.3-.5.1-.9.9-.9s1.5.2 1.5.3zm-292.5 2.3c.3.5.2 1.2-.3 1.5-.5.3-.9-.1-.9-.9 0-1.7.3-1.9 1.2-.6zm28 1c.3.5.2 1.2-.3 1.5-.5.3-.9-.1-.9-.9 0-1.7.3-1.9 1.2-.6zm64.2.6c0 .8-.4 1.2-.9.9-.5-.3-.6-1-.3-1.5.9-1.3 1.2-1.1 1.2.6zm31.8-.6c.3.5.2 1.2-.3 1.5-.5.3-.9-.1-.9-.9 0-1.7.3-1.9 1.2-.6zm8.2.6c0 .8-.4 1.2-.9.9-.5-.3-.6-1-.3-1.5.9-1.3 1.2-1.1 1.2.6zm32 0c0 .8-.4 1.2-.9.9-.5-.3-.6-1-.3-1.5.9-1.3 1.2-1.1 1.2.6zm56 1c0 .8-.4 1.2-.9.9-.5-.3-.6-1-.3-1.5.9-1.3 1.2-1.1 1.2.6zM85 243.6c0 .8-1.9 1.3-2.4.6-.3-.5.1-.9.9-.9s1.5.2 1.5.3zm9 0c0 .8-1.9 1.3-2.4.6-.3-.5.1-.9.9-.9s1.5.2 1.5.3zm18.1 1.1c1.3 1.6 1.2 1.7-.3.4-1-.7-1.8-1.5-1.8-1.7 0-.8.8-.3 2.1 1.3zm68.9-1.1c0 .8-1.9 1.3-2.4.6-.3-.5.1-.9.9-.9s1.5.2 1.5.3zm9 0c0 .8-1.9 1.3-2.4.6-.3-.5.1-.9.9-.9s1.5.2 1.5.3zm7 0c0 .8-1.9 1.3-2.4.6-.3-.5.1-.9.9-.9s1.5.2 1.5.3zm9 0c0 .8-1.9 1.3-2.4.6-.3-.5.1-.9.9-.9s1.5.2 1.5.3zm23 0c0 .8-1.9 1.3-2.4.6-.3-.5.1-.9.9-.9s1.5.2 1.5.3zm49 0c0 .8-1.9 1.3-2.4.6-.3-.5.1-.9.9-.9s1.5.2 1.5.3zm180 0c0 .8-1.9 1.3-2.4.6-.3-.5.1-.9.9-.9s1.5.2 1.5.3zm14.4.2c.3.5-.1.9-.9.9s-1.2-.4-.9-.9c.3-.4.7-.8.9-.8.2 0 .6.4.9.8zm12.1.1c.3.5.2 1.2-.3 1.5-.5.3-.9-.1-.9-.9 0-1.7.3-1.9 1.2-.6zm35.9 5.1c-.6.6-1 .3-1-1s.4-1.6 1-1c.7.7.7 1.3 0 2zm-379.7-.5c0 .8-.4 1.2-.9.9-.5-.3-.6-1-.3-1.5.9-1.3 1.2-1.1 1.2.6zm252.3-.1c-.7.7-1.3.7-2 0-.6-.6-.3-1 1-1s1.6.4 1 1zm23.5-.5c.3.5.2 1.2-.3 1.5-.5.3-.9-.1-.9-.9 0-1.7.3-1.9 1.2-.6zm-307.8 3.6c0 .8-.4 1.2-.9.9-.5-.3-.6-1-.3-1.5.9-1.3 1.2-1.1 1.2.6zm24 0c0 .8-.4 1.2-.9.9-.5-.3-.6-1-.3-1.5.9-1.3 1.2-1.1 1.2.6zm168.7.3c.3.5-.1.9-.9.9s-1.2-.4-.9-.9c.3-.4.7-.8.9-.8.2 0 .6.4.9.8zm79.3.7c0 .8-.4 1.2-.9.9-.5-.3-.6-1-.3-1.5.9-1.3 1.2-1.1 1.2.6zm5.3-.9c0 .8-1.9 1.3-2.4.6-.3-.5.1-.9.9-.9s1.5.2 1.5.3zm15 0c0 .8-1.9 1.3-2.4.6-.3-.5.1-.9.9-.9s1.5.2 1.5.3zm3.5.3c.3.5.2 1.2-.3 1.5-.5.3-.9-.1-.9-.9 0-1.7.3-1.9 1.2-.6zm20.5-.3c0 .8-1.9 1.3-2.4.6-.3-.5.1-.9.9-.9s1.5.2 1.5.3zm3.5.3c.3.5.2 1.2-.3 1.5-.5.3-.9-.1-.9-.9 0-1.7.3-1.9 1.2-.6zm19.9-.1c.3.5-.1.9-.9.9s-1.2-.4-.9-.9c.3-.4.7-.8.9-.8.2 0 .6.4.9.8zm33 0c.3.5-.1.9-.9.9s-1.2-.4-.9-.9c.3-.4.7-.8.9-.8.2 0 .6.4.9.8zm24.6-.2c0 .8-1.9 1.3-2.4.6-.3-.5.1-.9.9-.9s1.5.2 1.5.3zm18.7 7.9c0 .8-.4 1.2-.9.9-.5-.3-.6-1-.3-1.5.9-1.3 1.2-1.1 1.2.6zm-448 1c0 .8-.4 1.2-.9.9-.5-.3-.6-1-.3-1.5.9-1.3 1.2-1.1 1.2.6zm71.8-.6c.3.5.2 1.2-.3 1.5-.5.3-.9-.1-.9-.9 0-1.7.3-1.9 1.2-.6zm143.9-.1c.3.5-.1.9-.9.9s-1.2-.4-.9-.9c.3-.4.7-.8.9-.8.2 0 .6.4.9.8zm84.6-.2c0 .8-1.9 1.3-2.4.6-.3-.5.1-.9.9-.9s1.5.2 1.5.3zm11.4.2c.3.5-.1.9-.9.9s-1.2-.4-.9-.9c.3-.4.7-.8.9-.8.2 0 .6.4.9.8zm24.6-.2c0 .8-1.9 1.3-2.4.6-.3-.5.1-.9.9-.9s1.5.2 1.5.3zm24 0c0 .8-1.9 1.3-2.4.6-.3-.5.1-.9.9-.9s1.5.2 1.5.3zm35.5 1.2c-.3.3-1.1 0-1.8-.7-.9-1-.8-1.1.6-.5 1 .3 1.5.9 1.2 1.2zm35.9-1c.3.5-.1.9-.9.9s-1.2-.4-.9-.9c.3-.4.7-.8.9-.8.2 0 .6.4.9.8zm-479.6 4.7c-.3.3-.9-.2-1.2-1.2-.6-1.4-.5-1.5.5-.6.7.7 1 1.5.7 1.8zm63.7-1.6c.3.5.2 1.2-.3 1.5-.5.3-.9-.1-.9-.9 0-1.7.3-1.9 1.2-.6zm8.3 1.6c-.3.3-.9-.2-1.2-1.2-.6-1.4-.5-1.5.5-.6.7.7 1 1.5.7 1.8zm32 0c-.3.3-.9-.2-1.2-1.2-.6-1.4-.5-1.5.5-.6.7.7 1 1.5.7 1.8zm95.7-1.6c.3.5.2 1.2-.3 1.5-.5.3-.9-.1-.9-.9 0-1.7.3-1.9 1.2-.6zm84 0c.3.5.2 1.2-.3 1.5-.5.3-.9-.1-.9-.9 0-1.7.3-1.9 1.2-.6zm111.9 2.1c-.6.6-1 .3-1-1s.4-1.6 1-1c.7.7.7 1.3 0 2zm-239.4-.6c-.7.7-1.3.7-2 0-.6-.6-.3-1 1-1s1.6.4 1 1zm16 0c-.7.7-1.3.7-2 0-.6-.6-.3-1 1-1s1.6.4 1 1zm91.7.1c0 .8-.4 1.2-.9.9-.5-.3-.6-1-.3-1.5.9-1.3 1.2-1.1 1.2.6zm96 0c0 .8-.4 1.2-.9.9-.5-.3-.6-1-.3-1.5.9-1.3 1.2-1.1 1.2.6zm95.8-.6c.3.5.2 1.2-.3 1.5-.5.3-.9-.1-.9-.9 0-1.7.3-1.9 1.2-.6zm-371.4 3.8c1.3 1.6 1.2 1.7-.3.4-1-.7-1.8-1.5-1.8-1.7 0-.8.8-.3 2.1 1.3zm32 0c1.3 1.6 1.2 1.7-.3.4-1.7-1.3-2.2-2.1-1.4-2.1.2 0 1 .8 1.7 1.7zm347.4-.8c.3.5.2 1.2-.3 1.5-.5.3-.9-.1-.9-.9 0-1.7.3-1.9 1.2-.6zm-319.1.9c.3.5-.1.9-.9.9s-1.2-.4-.9-.9c.3-.4.7-.8.9-.8.2 0 .6.4.9.8zm19.6.6c-.7.7-1.3.7-2 0-.6-.6-.3-1 1-1s1.6.4 1 1zm83.7.1c0 .8-.4 1.2-.9.9-.5-.3-.6-1-.3-1.5.9-1.3 1.2-1.1 1.2.6zm228.7-.7c.3.5-.1.9-.9.9s-1.2-.4-.9-.9c.3-.4.7-.8.9-.8.2 0 .6.4.9.8zm-52.6 4.7c-.3.3-.9-.2-1.2-1.2-.6-1.4-.5-1.5.5-.6.7.7 1 1.5.7 1.8zm-392.1 0c0 .8-.4 1.2-.9.9-.5-.3-.6-1-.3-1.5.9-1.3 1.2-1.1 1.2.6zm104 0c0 .8-.4 1.2-.9.9-.5-.3-.6-1-.3-1.5.9-1.3 1.2-1.1 1.2.6zm316.8-.5c.3.6-.1.7-.9.4-1.8-.7-2.1-1.4-.7-1.4.6 0 1.3.4 1.6 1zm-412.8 3.5c0 .8-.4 1.2-.9.9-.5-.3-.6-1-.3-1.5.9-1.3 1.2-1.1 1.2.6zm55.8-.6c.3.5.2 1.2-.3 1.5-.5.3-.9-.1-.9-.9 0-1.7.3-1.9 1.2-.6zm32 0c.3.5.2 1.2-.3 1.5-.5.3-.9-.1-.9-.9 0-1.7.3-1.9 1.2-.6zm40 0c.3.5.2 1.2-.3 1.5-.5.3-.9-.1-.9-.9 0-1.7.3-1.9 1.2-.6zm112 0c.3.5.2 1.2-.3 1.5-.5.3-.9-.1-.9-.9 0-1.7.3-1.9 1.2-.6zm-235.1.9c.3.5-.1.9-.9.9s-1.2-.4-.9-.9c.3-.4.7-.8.9-.8.2 0 .6.4.9.8zm15.6-.2c0 .8-1.9 1.3-2.4.6-.3-.5.1-.9.9-.9s1.5.2 1.5.3zm17 0c0 .8-1.9 1.3-2.4.6-.3-.5.1-.9.9-.9s1.5.2 1.5.3zm14.4.2c.3.5-.1.9-.9.9s-1.2-.4-.9-.9c.3-.4.7-.8.9-.8.2 0 .6.4.9.8zm17.6-.2c0 .8-1.9 1.3-2.4.6-.3-.5.1-.9.9-.9s1.5.2 1.5.3zm14.4.2c.3.5-.1.9-.9.9s-1.2-.4-.9-.9c.3-.4.7-.8.9-.8.2 0 .6.4.9.8zm292.3.7c0 .8-.4 1.2-.9.9-.5-.3-.6-1-.3-1.5.9-1.3 1.2-1.1 1.2.6zm16.7-.7c.3.5-.1.9-.9.9s-1.2-.4-.9-.9c.3-.4.7-.8.9-.8.2 0 .6.4.9.8zm18.7.9c1.3 1.6 1.2 1.7-.3.4-1.7-1.3-2.2-2.1-1.4-2.1.2 0 1 .8 1.7 1.7zm12.6-.2c0 .8-.4 1.2-.9.9-.5-.3-.6-1-.3-1.5.9-1.3 1.2-1.1 1.2.6zm12.7-.7c.3.5-.1.9-.9.9s-1.2-.4-.9-.9c.3-.4.7-.8.9-.8.2 0 .6.4.9.8zm-88.8 3.7c-.1.8-.5 1.7-.8 2.1-.5.4-.4-1.6.1-3.4.3-.9.9.1.7 1.3zm111.9-.6c.3.5.2 1.2-.3 1.5-.5.3-.9-.1-.9-.9 0-1.7.3-1.9 1.2-.6zm-163.8 1.6c0 .8-.4 1.2-.9.9-.5-.3-.6-1-.3-1.5.9-1.3 1.2-1.1 1.2.6zm7.8-.6c.3.5.2 1.2-.3 1.5-.5.3-.9-.1-.9-.9 0-1.7.3-1.9 1.2-.6zm20.5.5c-.7.7-1.3.7-2 0-.6-.6-.3-1 1-1s1.6.4 1 1zm67.5-.5c.3.5.2 1.2-.3 1.5-.5.3-.9-.1-.9-.9 0-1.7.3-1.9 1.2-.6zm-103.8 3.6c0 .8-.4 1.2-.9.9-.5-.3-.6-1-.3-1.5.9-1.3 1.2-1.1 1.2.6zm23.8-.6c.3.5.2 1.2-.3 1.5-.5.3-.9-.1-.9-.9 0-1.7.3-1.9 1.2-.6zm-294.5.7c0 .8-1.9 1.3-2.4.6-.3-.5.1-.9.9-.9s1.5.2 1.5.3zm23 0c0 .8-1.9 1.3-2.4.6-.3-.5.1-.9.9-.9s1.5.2 1.5.3zm32 0c0 .8-1.9 1.3-2.4.6-.3-.5.1-.9.9-.9s1.5.2 1.5.3zm44 0c0 .8-1.9 1.3-2.4.6-.3-.5.1-.9.9-.9s1.5.2 1.5.3zm28.4.2c.3.5-.1.9-.9.9s-1.2-.4-.9-.9c.3-.4.7-.8.9-.8.2 0 .6.4.9.8zm187.6-.2c0 .8-1.9 1.3-2.4.6-.3-.5.1-.9.9-.9s1.5.2 1.5.3zm24 0c0 .8-1.9 1.3-2.4.6-.3-.5.1-.9.9-.9s1.5.2 1.5.3zm71.4.2c.3.5-.1.9-.9.9s-1.2-.4-.9-.9c.3-.4.7-.8.9-.8.2 0 .6.4.9.8zm-367.7 2.7c0 .8-.4 1.2-.9.9-.5-.3-.6-1-.3-1.5.9-1.3 1.2-1.1 1.2.6zm180.4 1.2c1.3 1.6 1.2 1.7-.3.4-1.7-1.3-2.2-2.1-1.4-2.1.2 0 1 .8 1.7 1.7zm59.9-.3c0 .2-.7.7-1.6 1-.8.3-1.2.2-.9-.4.6-1 2.5-1.4 2.5-.6zm-284.5 3.5c.3.5.2 1.2-.3 1.5-.5.3-.9-.1-.9-.9 0-1.7.3-1.9 1.2-.6zm108.6.8c1.3 1.6 1.2 1.7-.3.4-1-.7-1.8-1.5-1.8-1.7 0-.8.8-.3 2.1 1.3zm195.4-.8c.3.5.2 1.2-.3 1.5-.5.3-.9-.1-.9-.9 0-1.7.3-1.9 1.2-.6zm-308.1.9c.3.5-.1.9-.9.9s-1.2-.4-.9-.9c.3-.4.7-.8.9-.8.2 0 .6.4.9.8zm33 0c.3.5-.1.9-.9.9s-1.2-.4-.9-.9c.3-.4.7-.8.9-.8.2 0 .6.4.9.8zm14.7.9c1.3 1.6 1.2 1.7-.3.4-1-.7-1.8-1.5-1.8-1.7 0-.8.8-.3 2.1 1.3zm25.3-.9c.3.5-.1.9-.9.9s-1.2-.4-.9-.9c.3-.4.7-.8.9-.8.2 0 .6.4.9.8zm24.6-.2c0 .8-1.9 1.3-2.4.6-.3-.5.1-.9.9-.9s1.5.2 1.5.3zm31 0c0 .8-1.9 1.3-2.4.6-.3-.5.1-.9.9-.9s1.5.2 1.5.3zm75.5.3c.3.5.2 1.2-.3 1.5-.5.3-.9-.1-.9-.9 0-1.7.3-1.9 1.2-.6zm68.5-.3c0 .8-1.9 1.3-2.4.6-.3-.5.1-.9.9-.9s1.5.2 1.5.3zm115.5.3c.3.5.2 1.2-.3 1.5-.5.3-.9-.1-.9-.9 0-1.7.3-1.9 1.2-.6zm15.9-.1c.3.5-.1.9-.9.9s-1.2-.4-.9-.9c.3-.4.7-.8.9-.8.2 0 .6.4.9.8zm45.1.2c-.3.5-1.2 1-1.8 1-.7 0-.6-.4.3-1 1.9-1.2 2.3-1.2 1.5 0zm-468.8 4.5c0 .8-.4 1.2-.9.9-.5-.3-.6-1-.3-1.5.9-1.3 1.2-1.1 1.2.6zm80 0c0 .8-.4 1.2-.9.9-.5-.3-.6-1-.3-1.5.9-1.3 1.2-1.1 1.2.6zm151.8-.6c.3.5.2 1.2-.3 1.5-.5.3-.9-.1-.9-.9 0-1.7.3-1.9 1.2-.6zm192.2.6c0 .8-.4 1.2-.9.9-.5-.3-.6-1-.3-1.5.9-1.3 1.2-1.1 1.2.6zm-352 3c0 .8-.4 1.2-.9.9-.5-.3-.6-1-.3-1.5.9-1.3 1.2-1.1 1.2.6zm47.8-.6c.3.5.2 1.2-.3 1.5-.5.3-.9-.1-.9-.9 0-1.7.3-1.9 1.2-.6zm120 0c.3.5.2 1.2-.3 1.5-.5.3-.9-.1-.9-.9 0-1.7.3-1.9 1.2-.6zm164.6.8c1.3 1.6 1.2 1.7-.3.4-1.7-1.3-2.2-2.1-1.4-2.1.2 0 1 .8 1.7 1.7zm-380.6.2c.3.5.2 1.2-.3 1.5-.5.3-.9-.1-.9-.9 0-1.7.3-1.9 1.2-.6zm24.2.6c0 .8-.4 1.2-.9.9-.5-.3-.6-1-.3-1.5.9-1.3 1.2-1.1 1.2.6zm60.3-.9c0 .8-1.9 1.3-2.4.6-.3-.5.1-.9.9-.9s1.5.2 1.5.3zm43.7.9c0 .8-.4 1.2-.9.9-.5-.3-.6-1-.3-1.5.9-1.3 1.2-1.1 1.2.6zm5.3-.9c0 .8-1.9 1.3-2.4.6-.3-.5.1-.9.9-.9s1.5.2 1.5.3zm135.4.2c.3.5-.1.9-.9.9s-1.2-.4-.9-.9c.3-.4.7-.8.9-.8.2 0 .6.4.9.8zm28 0c.3.5-.1.9-.9.9s-1.2-.4-.9-.9c.3-.4.7-.8.9-.8.2 0 .6.4.9.8zm44 0c.3.5-.1.9-.9.9s-1.2-.4-.9-.9c.3-.4.7-.8.9-.8.2 0 .6.4.9.8zm15.6-.2c0 .8-1.9 1.3-2.4.6-.3-.5.1-.9.9-.9s1.5.2 1.5.3zm80 0c0 .8-1.9 1.3-2.4.6-.3-.5.1-.9.9-.9s1.5.2 1.5.3zm3.5.3c.3.5.2 1.2-.3 1.5-.5.3-.9-.1-.9-.9 0-1.7.3-1.9 1.2-.6zM193 304.4c-.7.7-1.3.7-2 0-.6-.6-.3-1 1-1s1.6.4 1 1zm187.5-.5c.3.5.2 1.2-.3 1.5-.5.3-.9-.1-.9-.9 0-1.7.3-1.9 1.2-.6zm96 3c.3.5.2 1.2-.3 1.5-.5.3-.9-.1-.9-.9 0-1.7.3-1.9 1.2-.6zm24 0c.3.5.2 1.2-.3 1.5-.5.3-.9-.1-.9-.9 0-1.7.3-1.9 1.2-.6zm-343.5.7c0 .8-1.9 1.3-2.4.6-.3-.5.1-.9.9-.9s1.5.2 1.5.3zm12 0c0 .8-1.9 1.3-2.4.6-.3-.5.1-.9.9-.9s1.5.2 1.5.3zm11.7.9c0 .8-.4 1.2-.9.9-.5-.3-.6-1-.3-1.5.9-1.3 1.2-1.1 1.2.6zm232.7-.7c.3.5-.1.9-.9.9s-1.2-.4-.9-.9c.3-.4.7-.8.9-.8.2 0 .6.4.9.8zm44.6-.2c0 .8-1.9 1.3-2.4.6-.3-.5.1-.9.9-.9s1.5.2 1.5.3zm14.4.2c.3.5-.1.9-.9.9s-1.2-.4-.9-.9c.3-.4.7-.8.9-.8.2 0 .6.4.9.8zm-403.7 3.7c0 .8-.4 1.2-.9.9-.5-.3-.6-1-.3-1.5.9-1.3 1.2-1.1 1.2.6zm35.7 1.5c-.6.6-1 .3-1-1s.4-1.6 1-1c.7.7.7 1.3 0 2zm20.1-2.1c.3.5.2 1.2-.3 1.5-.5.3-.9-.1-.9-.9 0-1.7.3-1.9 1.2-.6zm16 0c.3.5.2 1.2-.3 1.5-.5.3-.9-.1-.9-.9 0-1.7.3-1.9 1.2-.6zm48.2.6c0 .8-.4 1.2-.9.9-.5-.3-.6-1-.3-1.5.9-1.3 1.2-1.1 1.2.6zm7.8-.6c.3.5.2 1.2-.3 1.5-.5.3-.9-.1-.9-.9 0-1.7.3-1.9 1.2-.6zm179.9 2.1c-.6.6-1 .3-1-1s.4-1.6 1-1c.7.7.7 1.3 0 2zm36.1-1.1c.3.5.2 1.2-.3 1.5-.5.3-.9-.1-.9-.9 0-1.7.3-1.9 1.2-.6zm8 0c.3.5.2 1.2-.3 1.5-.5.3-.9-.1-.9-.9 0-1.7.3-1.9 1.2-.6zm24.2.6c0 .8-.4 1.2-.9.9-.5-.3-.6-1-.3-1.5.9-1.3 1.2-1.1 1.2.6zm-16.2 2.4c.3.5.2 1.2-.3 1.5-.5.3-.9-.1-.9-.9 0-1.7.3-1.9 1.2-.6zm-359.5.7c0 .8-1.9 1.3-2.4.6-.3-.5.1-.9.9-.9s1.5.2 1.5.3zm73 0c0 .8-1.9 1.3-2.4.6-.3-.5.1-.9.9-.9s1.5.2 1.5.3zm195.4.2c.3.5-.1.9-.9.9s-1.2-.4-.9-.9c.3-.4.7-.8.9-.8.2 0 .6.4.9.8zm19.3.7c0 .8-.4 1.2-.9.9-.5-.3-.6-1-.3-1.5.9-1.3 1.2-1.1 1.2.6zm5.3-.9c0 .8-1.9 1.3-2.4.6-.3-.5.1-.9.9-.9s1.5.2 1.5.3zm99 0c0 .8-1.9 1.3-2.4.6-.3-.5.1-.9.9-.9s1.5.2 1.5.3zm36 0c0 .8-1.9 1.3-2.4.6-.3-.5.1-.9.9-.9s1.5.2 1.5.3zm3.5.3c.3.5.2 1.2-.3 1.5-.5.3-.9-.1-.9-.9 0-1.7.3-1.9 1.2-.6zm16.9-.1c.3.5-.1.9-.9.9s-1.2-.4-.9-.9c.3-.4.7-.8.9-.8.2 0 .6.4.9.8zm-496.7 3.7c0 .8-.4 1.2-.9.9-.5-.3-.6-1-.3-1.5.9-1.3 1.2-1.1 1.2.6zm192.1 1c-.3.3-.9-.2-1.2-1.2-.6-1.4-.5-1.5.5-.6.7.7 1 1.5.7 1.8zm167.7-1.6c.3.5.2 1.2-.3 1.5-.5.3-.9-.1-.9-.9 0-1.7.3-1.9 1.2-.6zm35.9 2.1c-.6.6-1 .3-1-1s.4-1.6 1-1c.7.7.7 1.3 0 2zm-340-.4c.3.8.2 1.2-.4.9-.6-.3-1-1-1-1.6 0-1.4.7-1.1 1.4.7zm127.7.7c-1 .9-1.1.8-.5-.6.3-1 .9-1.5 1.2-1.2.3.3 0 1.1-.7 1.8zm24.3-.7c.3.8.2 1.2-.4.9-.6-.3-1-1-1-1.6 0-1.4.7-1.1 1.4.7zm220.6-1.2c0 .3-.4.8-1 1.1-.5.3-1 .1-1-.4 0-.6.5-1.1 1-1.1.6 0 1 .2 1 .4zm-292.5 3.5c.3.5.2 1.2-.3 1.5-.5.3-.9-.1-.9-.9 0-1.7.3-1.9 1.2-.6zm344 0c.3.5.2 1.2-.3 1.5-.5.3-.9-.1-.9-.9 0-1.7.3-1.9 1.2-.6zm-394.5.7c0 .8-1.9 1.3-2.4.6-.3-.5.1-.9.9-.9s1.5.2 1.5.3zm46.4.2c.3.5-.1.9-.9.9s-1.2-.4-.9-.9c.3-.4.7-.8.9-.8.2 0 .6.4.9.8zm24.6-.2c0 .8-1.9 1.3-2.4.6-.3-.5.1-.9.9-.9s1.5.2 1.5.3zm36 0c0 .8-1.9 1.3-2.4.6-.3-.5.1-.9.9-.9s1.5.2 1.5.3zm9 0c0 .8-1.9 1.3-2.4.6-.3-.5.1-.9.9-.9s1.5.2 1.5.3zm206.5.3c.3.5.2 1.2-.3 1.5-.5.3-.9-.1-.9-.9 0-1.7.3-1.9 1.2-.6zm31.9-.1c.3.5-.1.9-.9.9s-1.2-.4-.9-.9c.3-.4.7-.8.9-.8.2 0 .6.4.9.8zm36 0c.3.5-.1.9-.9.9s-1.2-.4-.9-.9c.3-.4.7-.8.9-.8.2 0 .6.4.9.8zm-83.9 3.1c.3.5.2 1.2-.3 1.5-.5.3-.9-.1-.9-.9 0-1.7.3-1.9 1.2-.6zm8 0c.3.5.2 1.2-.3 1.5-.5.3-.9-.1-.9-.9 0-1.7.3-1.9 1.2-.6zm24.2.6c0 .8-.4 1.2-.9.9-.5-.3-.6-1-.3-1.5.9-1.3 1.2-1.1 1.2.6zm-352 1c0 .8-.4 1.2-.9.9-.5-.3-.6-1-.3-1.5.9-1.3 1.2-1.1 1.2.6zm80 3c0 .8-.4 1.2-.9.9-.5-.3-.6-1-.3-1.5.9-1.3 1.2-1.1 1.2.6zm-112.3.3c.3.5-.1.9-.9.9s-1.2-.4-.9-.9c.3-.4.7-.8.9-.8.2 0 .6.4.9.8zm48.6-.2c0 .8-1.9 1.3-2.4.6-.3-.5.1-.9.9-.9s1.5.2 1.5.3zm8.4.2c.3.5-.1.9-.9.9s-1.2-.4-.9-.9c.3-.4.7-.8.9-.8.2 0 .6.4.9.8zm240 0c.3.5-.1.9-.9.9s-1.2-.4-.9-.9c.3-.4.7-.8.9-.8.2 0 .6.4.9.8zm28.6-.4c0 .2-.8 1-1.7 1.7-1.6 1.3-1.7 1.2-.4-.4 1.3-1.6 2.1-2.1 2.1-1.3zm28 .2c0 .8-1.9 1.3-2.4.6-.3-.5.1-.9.9-.9s1.5.2 1.5.3zm43.4.2c.3.5-.1.9-.9.9s-1.2-.4-.9-.9c.3-.4.7-.8.9-.8.2 0 .6.4.9.8zm15.6-.2c0 .8-1.9 1.3-2.4.6-.3-.5.1-.9.9-.9s1.5.2 1.5.3zm3.5.3c.3.5.2 1.2-.3 1.5-.5.3-.9-.1-.9-.9 0-1.7.3-1.9 1.2-.6zm24 0c.3.5.2 1.2-.3 1.5-.5.3-.9-.1-.9-.9 0-1.7.3-1.9 1.2-.6zm-375.8 3.6c0 .8-.4 1.2-.9.9-.5-.3-.6-1-.3-1.5.9-1.3 1.2-1.1 1.2.6zm8 0c0 .8-.4 1.2-.9.9-.5-.3-.6-1-.3-1.5.9-1.3 1.2-1.1 1.2.6zm-35.7-.1c0 .2-.7.7-1.6 1-.8.3-1.2.2-.9-.4.6-1 2.5-1.4 2.5-.6zm245 0c0 .2-.8 1-1.7 1.7-1.6 1.3-1.7 1.2-.4-.4 1.3-1.6 2.1-2.1 2.1-1.3zm-265.5 3.5c.3.5.2 1.2-.3 1.5-.5.3-.9-.1-.9-.9 0-1.7.3-1.9 1.2-.6zm-4.1.9c.3.5-.1.9-.9.9s-1.2-.4-.9-.9c.3-.4.7-.8.9-.8.2 0 .6.4.9.8zm60.6-.2c0 .8-1.9 1.3-2.4.6-.3-.5.1-.9.9-.9s1.5.2 1.5.3zm9 0c0 .8-1.9 1.3-2.4.6-.3-.5.1-.9.9-.9s1.5.2 1.5.3zm30.5.3c.3.5.2 1.2-.3 1.5-.5.3-.9-.1-.9-.9 0-1.7.3-1.9 1.2-.6zm13.5-.3c0 .8-1.9 1.3-2.4.6-.3-.5.1-.9.9-.9s1.5.2 1.5.3zm34.7.9c0 .8-.4 1.2-.9.9-.5-.3-.6-1-.3-1.5.9-1.3 1.2-1.1 1.2.6zm16.7-.7c.3.5-.1.9-.9.9s-1.2-.4-.9-.9c.3-.4.7-.8.9-.8.2 0 .6.4.9.8zm111.6-.2c0 .8-1.9 1.3-2.4.6-.3-.5.1-.9.9-.9s1.5.2 1.5.3zm76.5.4c-.3.5-1.2 1-1.8 1-.7 0-.6-.4.3-1 1.9-1.2 2.3-1.2 1.5 0zm14.9-.2c.3.5-.1.9-.9.9s-1.2-.4-.9-.9c.3-.4.7-.8.9-.8.2 0 .6.4.9.8zm25.6-.4c0 .2-.8 1-1.7 1.7-1.6 1.3-1.7 1.2-.4-.4 1.3-1.6 2.1-2.1 2.1-1.3zm-301.5 3.5c.3.5.2 1.2-.3 1.5-.5.3-.9-.1-.9-.9 0-1.7.3-1.9 1.2-.6zm168 0c.3.5.2 1.2-.3 1.5-.5.3-.9-.1-.9-.9 0-1.7.3-1.9 1.2-.6zm40 0c.3.5.2 1.2-.3 1.5-.5.3-.9-.1-.9-.9 0-1.7.3-1.9 1.2-.6zm112.2.6c0 .8-.4 1.2-.9.9-.5-.3-.6-1-.3-1.5.9-1.3 1.2-1.1 1.2.6zm-376 1c0 .8-.4 1.2-.9.9-.5-.3-.6-1-.3-1.5.9-1.3 1.2-1.1 1.2.6zm8 0c0 .8-.4 1.2-.9.9-.5-.3-.6-1-.3-1.5.9-1.3 1.2-1.1 1.2.6zm119.8-.6c.3.5.2 1.2-.3 1.5-.5.3-.9-.1-.9-.9 0-1.7.3-1.9 1.2-.6zm232 3c.3.5.2 1.2-.3 1.5-.5.3-.9-.1-.9-.9 0-1.7.3-1.9 1.2-.6zm-387.1.9c.3.5-.1.9-.9.9s-1.2-.4-.9-.9c.3-.4.7-.8.9-.8.2 0 .6.4.9.8zm107.6-.2c0 .8-1.9 1.3-2.4.6-.3-.5.1-.9.9-.9s1.5.2 1.5.3zm12 0c0 .8-1.9 1.3-2.4.6-.3-.5.1-.9.9-.9s1.5.2 1.5.3zm3.5.3c.3.5.2 1.2-.3 1.5-.5.3-.9-.1-.9-.9 0-1.7.3-1.9 1.2-.6zm120.5-.3c0 .8-1.9 1.3-2.4.6-.3-.5.1-.9.9-.9s1.5.2 1.5.3zm9 0c0 .8-1.9 1.3-2.4.6-.3-.5.1-.9.9-.9s1.5.2 1.5.3zm27 0c0 .8-1.9 1.3-2.4.6-.3-.5.1-.9.9-.9s1.5.2 1.5.3zm27.5.3c.3.5.2 1.2-.3 1.5-.5.3-.9-.1-.9-.9 0-1.7.3-1.9 1.2-.6zm96.5-.3c0 .8-1.9 1.3-2.4.6-.3-.5.1-.9.9-.9s1.5.2 1.5.3zm-303 3.8c0 .2-.8 1-1.7 1.7-1.6 1.3-1.7 1.2-.4-.4 1.3-1.6 2.1-2.1 2.1-1.3zm51.6.8c.3.4-.1.5-1 .4-.8-.1-1.8-.5-2.2-.8-.3-.4.1-.5 1-.4.8.1 1.8.5 2.2.8zm114.5.5c1.3 1.6 1.2 1.7-.3.4-1-.7-1.8-1.5-1.8-1.7 0-.8.8-.3 2.1 1.3zM37 355.6c0 .8-1.9 1.3-2.4.6-.3-.5.1-.9.9-.9s1.5.2 1.5.3zm48 0c0 .8-1.9 1.3-2.4.6-.3-.5.1-.9.9-.9s1.5.2 1.5.3zm23.5.3c.3.5.2 1.2-.3 1.5-.5.3-.9-.1-.9-.9 0-1.7.3-1.9 1.2-.6zm8.2.6c0 .8-.4 1.2-.9.9-.5-.3-.6-1-.3-1.5.9-1.3 1.2-1.1 1.2.6zm72.3-.9c0 .8-1.9 1.3-2.4.6-.3-.5.1-.9.9-.9s1.5.2 1.5.3zm12 0c0 .8-1.9 1.3-2.4.6-.3-.5.1-.9.9-.9s1.5.2 1.5.3zm141 0c0 .8-1.9 1.3-2.4.6-.3-.5.1-.9.9-.9s1.5.2 1.5.3zm31.4.2c.3.5-.1.9-.9.9s-1.2-.4-.9-.9c.3-.4.7-.8.9-.8.2 0 .6.4.9.8zm12.1.2c.3.6-.1.7-.9.4-1.8-.7-2.1-1.4-.7-1.4.6 0 1.3.4 1.6 1zm14.9-.2c.3.5-.1.9-.9.9s-1.2-.4-.9-.9c.3-.4.7-.8.9-.8.2 0 .6.4.9.8zm24 0c.3.5-.1.9-.9.9s-1.2-.4-.9-.9c.3-.4.7-.8.9-.8.2 0 .6.4.9.8zm52.3.7c0 .8-.4 1.2-.9.9-.5-.3-.6-1-.3-1.5.9-1.3 1.2-1.1 1.2.6zm20.3-.9c0 .8-1.9 1.3-2.4.6-.3-.5.1-.9.9-.9s1.5.2 1.5.3zm21 0c0 .8-1.9 1.3-2.4.6-.3-.5.1-.9.9-.9s1.5.2 1.5.3zm-417.5 3.3c.3.5.2 1.2-.3 1.5-.5.3-.9-.1-.9-.9 0-1.7.3-1.9 1.2-.6zm24.2.6c0 .8-.4 1.2-.9.9-.5-.3-.6-1-.3-1.5.9-1.3 1.2-1.1 1.2.6zm8 0c0 .8-.4 1.2-.9.9-.5-.3-.6-1-.3-1.5.9-1.3 1.2-1.1 1.2.6zm96 0c0 .8-.4 1.2-.9.9-.5-.3-.6-1-.3-1.5.9-1.3 1.2-1.1 1.2.6zm187.9 1.1c.1.9 0 1.3-.4 1-.3-.4-.7-1.4-.8-2.2-.1-.9 0-1.3.4-1 .3.4.7 1.4.8 2.2zm43.9-1.7c.3.5.2 1.2-.3 1.5-.5.3-.9-.1-.9-.9 0-1.7.3-1.9 1.2-.6zm-67.1.9c.2.4-.4.8-1.4.8-1 0-1.6-.4-1.4-.8.3-.4.9-.8 1.4-.8.5 0 1.1.4 1.4.8zm-324.9 3c-.3.3-1.1 0-1.8-.7-.9-1-.8-1.1.6-.5 1 .3 1.5.9 1.2 1.2zm376.2.7c0 .8-.4 1.2-.9.9-.5-.3-.6-1-.3-1.5.9-1.3 1.2-1.1 1.2.6zm36.3-1.1c0 .2-.8 1-1.7 1.7-1.6 1.3-1.7 1.2-.4-.4 1.3-1.6 2.1-2.1 2.1-1.3zm11.7 1.1c0 .8-.4 1.2-.9.9-.5-.3-.6-1-.3-1.5.9-1.3 1.2-1.1 1.2.6zm-359.7.1c0 .8-1.9 1.3-2.4.6-.3-.5.1-.9.9-.9s1.5.2 1.5.3zm65 0c0 .8-1.9 1.3-2.4.6-.3-.5.1-.9.9-.9s1.5.2 1.5.3zm31 0c0 .8-1.9 1.3-2.4.6-.3-.5.1-.9.9-.9s1.5.2 1.5.3zm127.7.9c0 .8-.4 1.2-.9.9-.5-.3-.6-1-.3-1.5.9-1.3 1.2-1.1 1.2.6zm5.3-.9c0 .8-1.9 1.3-2.4.6-.3-.5.1-.9.9-.9s1.5.2 1.5.3zm14.4.2c.3.5-.1.9-.9.9s-1.2-.4-.9-.9c.3-.4.7-.8.9-.8.2 0 .6.4.9.8zm85.6-.2c0 .8-1.9 1.3-2.4.6-.3-.5.1-.9.9-.9s1.5.2 1.5.3zm44 0c0 .8-1.9 1.3-2.4.6-.3-.5.1-.9.9-.9s1.5.2 1.5.3zm-425.5 1.3c.3.5.2 1.2-.3 1.5-.5.3-.9-.1-.9-.9 0-1.7.3-1.9 1.2-.6zm31.5 2.7c0 .8-1.9 1.3-2.4.6-.3-.5.1-.9.9-.9s1.5.2 1.5.3zm340.1 1.7c-1 .9-1.1.8-.5-.6.3-1 .9-1.5 1.2-1.2.3.3 0 1.1-.7 1.8zm29.4-1.3c-.3.5-1.2 1-1.8 1-.7 0-.6-.4.3-1 1.9-1.2 2.3-1.2 1.5 0zm-273 .9c.3.5.2 1.2-.3 1.5-.5.3-.9-.1-.9-.9 0-1.7.3-1.9 1.2-.6zm-51.8 2.6c0 .8-.4 1.2-.9.9-.5-.3-.6-1-.3-1.5.9-1.3 1.2-1.1 1.2.6zm24 0c0 .8-.4 1.2-.9.9-.5-.3-.6-1-.3-1.5.9-1.3 1.2-1.1 1.2.6zm-88 1c0 .8-.4 1.2-.9.9-.5-.3-.6-1-.3-1.5.9-1.3 1.2-1.1 1.2.6zm12.8-.5c-.3.5-1.2 1-1.8 1-.7 0-.6-.4.3-1 1.9-1.2 2.3-1.2 1.5 0zm14.9-.2c.3.5-.1.9-.9.9s-1.2-.4-.9-.9c.3-.4.7-.8.9-.8.2 0 .6.4.9.8zm65 0c.3.5-.1.9-.9.9s-1.2-.4-.9-.9c.3-.4.7-.8.9-.8.2 0 .6.4.9.8zm12 0c.3.5-.1.9-.9.9s-1.2-.4-.9-.9c.3-.4.7-.8.9-.8.2 0 .6.4.9.8zm143.6-.2c0 .8-1.9 1.3-2.4.6-.3-.5.1-.9.9-.9s1.5.2 1.5.3zm27.1 1.1c1.3 1.6 1.2 1.7-.3.4-1.7-1.3-2.2-2.1-1.4-2.1.2 0 1 .8 1.7 1.7zm124.4-.8c.3.5.2 1.2-.3 1.5-.5.3-.9-.1-.9-.9 0-1.7.3-1.9 1.2-.6zm13.5-.3c0 .8-1.9 1.3-2.4.6-.3-.5.1-.9.9-.9s1.5.2 1.5.3zm-117.3 3.9c0 .8-.4 1.2-.9.9-.5-.3-.6-1-.3-1.5.9-1.3 1.2-1.1 1.2.6zm35.7 1.5c-.6.6-1 .3-1-1s.4-1.6 1-1c.7.7.7 1.3 0 2zm60.1-2.1c.3.5.2 1.2-.3 1.5-.5.3-.9-.1-.9-.9 0-1.7.3-1.9 1.2-.6zm-103.8 1.6c0 .8-.4 1.2-.9.9-.5-.3-.6-1-.3-1.5.9-1.3 1.2-1.1 1.2.6zm-344.3 3.3c.3.5-.1.9-.9.9s-1.2-.4-.9-.9c.3-.4.7-.8.9-.8.2 0 .6.4.9.8zm9.6-.2c0 .8-1.9 1.3-2.4.6-.3-.5.1-.9.9-.9s1.5.2 1.5.3zm30.5.3c.3.5.2 1.2-.3 1.5-.5.3-.9-.1-.9-.9 0-1.7.3-1.9 1.2-.6zm19.9-.1c.3.5-.1.9-.9.9s-1.2-.4-.9-.9c.3-.4.7-.8.9-.8.2 0 .6.4.9.8zm44 0c.3.5-.1.9-.9.9s-1.2-.4-.9-.9c.3-.4.7-.8.9-.8.2 0 .6.4.9.8zm16.3.7c0 .8-.4 1.2-.9.9-.5-.3-.6-1-.3-1.5.9-1.3 1.2-1.1 1.2.6zm5.3-.9c0 .8-1.9 1.3-2.4.6-.3-.5.1-.9.9-.9s1.5.2 1.5.3zm38.4.2c.3.5-.1.9-.9.9s-1.2-.4-.9-.9c.3-.4.7-.8.9-.8.2 0 .6.4.9.8zm36 0c.3.5-.1.9-.9.9s-1.2-.4-.9-.9c.3-.4.7-.8.9-.8.2 0 .6.4.9.8zm176 0c.3.5-.1.9-.9.9s-1.2-.4-.9-.9c.3-.4.7-.8.9-.8.2 0 .6.4.9.8zm24 0c.3.5-.1.9-.9.9s-1.2-.4-.9-.9c.3-.4.7-.8.9-.8.2 0 .6.4.9.8zm36.6-.4c0 .2-.7.7-1.6 1-.8.3-1.2.2-.9-.4.6-1 2.5-1.4 2.5-.6zm36 .2c0 .8-1.9 1.3-2.4.6-.3-.5.1-.9.9-.9s1.5.2 1.5.3zm-375.9 4.1c1.3 1.6 1.2 1.7-.3.4-1-.7-1.8-1.5-1.8-1.7 0-.8.8-.3 2.1 1.3zm251.2-.2c-.3.9-.8 1.4-1 1.1-.3-.3-.2-.9.2-1.5.9-1.6 1.5-1.3.8.4zm20.8.2c1.3 1.6 1.2 1.7-.3.4-1.7-1.3-2.2-2.1-1.4-2.1.2 0 1 .8 1.7 1.7zm-64.7.1c.3.5-.1.9-.9.9s-1.2-.4-.9-.9c.3-.4.7-.8.9-.8.2 0 .6.4.9.8zM89 387.6c0 .8-1.9 1.3-2.4.6-.3-.5.1-.9.9-.9s1.5.2 1.5.3zm36 0c0 .8-1.9 1.3-2.4.6-.3-.5.1-.9.9-.9s1.5.2 1.5.3zm23.4.2c.3.5-.1.9-.9.9s-1.2-.4-.9-.9c.3-.4.7-.8.9-.8.2 0 .6.4.9.8zm60.6-.2c0 .8-1.9 1.3-2.4.6-.3-.5.1-.9.9-.9s1.5.2 1.5.3zm33 0c0 .8-1.9 1.3-2.4.6-.3-.5.1-.9.9-.9s1.5.2 1.5.3zm106.5.3c.3.5.2 1.2-.3 1.5-.5.3-.9-.1-.9-.9 0-1.7.3-1.9 1.2-.6zm16 0c.3.5.2 1.2-.3 1.5-.5.3-.9-.1-.9-.9 0-1.7.3-1.9 1.2-.6zm47.9-.1c.3.5-.1.9-.9.9s-1.2-.4-.9-.9c.3-.4.7-.8.9-.8.2 0 .6.4.9.8zm21.6-.2c0 .8-1.9 1.3-2.4.6-.3-.5.1-.9.9-.9s1.5.2 1.5.3zm36 0c0 .8-1.9 1.3-2.4.6-.3-.5.1-.9.9-.9s1.5.2 1.5.3zm23.4.2c.3.5-.1.9-.9.9s-1.2-.4-.9-.9c.3-.4.7-.8.9-.8.2 0 .6.4.9.8zm12.4 2.7c-.6 1.4-1.3 2.3-1.5 2.1-.5-.5 1.5-4.6 2.2-4.6.3 0-.1 1.1-.7 2.5zM53.5 390c.3.6-.1.7-.9.4-1.8-.7-2.1-1.4-.7-1.4.6 0 1.3.4 1.6 1zm303 .9c.3.5.2 1.2-.3 1.5-.5.3-.9-.1-.9-.9 0-1.7.3-1.9 1.2-.6zm24.2.6c0 .8-.4 1.2-.9.9-.5-.3-.6-1-.3-1.5.9-1.3 1.2-1.1 1.2.6zm-280 1c0 .8-.4 1.2-.9.9-.5-.3-.6-1-.3-1.5.9-1.3 1.2-1.1 1.2.6zm48 0c0 .8-.4 1.2-.9.9-.5-.3-.6-1-.3-1.5.9-1.3 1.2-1.1 1.2.6zm239.8-.6c.3.5.2 1.2-.3 1.5-.5.3-.9-.1-.9-.9 0-1.7.3-1.9 1.2-.6zm104 0c.3.5.2 1.2-.3 1.5-.5.3-.9-.1-.9-.9 0-1.7.3-1.9 1.2-.6zm-287.8 3.6c0 .8-.4 1.2-.9.9-.5-.3-.6-1-.3-1.5.9-1.3 1.2-1.1 1.2.6zm39.8-.6c.3.5.2 1.2-.3 1.5-.5.3-.9-.1-.9-.9 0-1.7.3-1.9 1.2-.6zm192 0c.3.5.2 1.2-.3 1.5-.5.3-.9-.1-.9-.9 0-1.7.3-1.9 1.2-.6zm62.8 9.8c-2.6 5.4-5.3 10.4-6 11.1-1.3 1.3-1.7 2.8-1.3 4.7.1.5-.2.7-.6.3-1-1.1-4.6 5.1-3.8 6.4.4.6.3.8-.4.4-.5-.3-2 .9-3.1 2.8-1.2 1.9-4.2 6-6.6 9.2-2.4 3.1-4.2 6.1-3.8 6.7.3.6.1.7-.5.3-1.2-.7-7.5 6.8-6.4 7.8.4.4.3.6-.3.5-.5-.2-5.1 3.7-10 8.6-5 5-11.2 10.7-13.8 12.9-2.6 2.1-4.4 4.3-4 4.9.4.6.1.7-.6.2-.8-.4-2.3.3-3.9 1.7-1.5 1.4-4.6 3.8-6.9 5.5-2.4 1.6-3.9 3.4-3.5 3.8.4.5.2.5-.5.2-.6-.4-1.8-.1-2.6.7-.8.8-1.7 1.2-2.1.9-.3-.4-.6-.1-.6.5 0 .7-.5 1.2-1.1 1.2-.6 0-2.5 1-4.2 2.2-1.8 1.3-4.3 2.9-5.7 3.6-5.9 3.2-20 10.1-25.5 12.7-3.3 1.5-6.7 3-7.5 3.4-.8.4-5 1.8-9.2 3.1-4.2 1.3-7.5 2.7-7.3 3.1.3.3-.7.4-2.2.1-1.4-.3-2.3-.1-2 .4.3.5-.7 1-2.1 1-1.5.1-4.7.7-7.2 1.4-5.5 1.4-7.5 1.9-12 2.6-1.9.3-5.5 1-8 1.5-13.2 2.7-43.7 4-58.5 2.5-3.3-.3-8.2-.8-11-1.1-2.7-.2-10.2-1.4-16.5-2.6-6.3-1.2-12.3-2.2-13.2-2.3-1 0-1.8-.4-1.8-.9 0-.4-.6-.7-1.2-.6-.7.1-2 0-2.8-.4-4.7-1.8-13.2-3.7-14.3-3.1-.7.4-.9.3-.4-.1.8-1-8.2-4.7-9.5-3.9-.4.3-.8.1-.8-.3 0-.9-6.9-3.9-8.2-3.5-.5.1-.8-.2-.8-.8 0-1.3-2.7-1.3-3.3 0-.3.6-.4.5-.3-.2.1-.7-4.3-3.5-10.2-6.5-5.7-2.9-11-5.7-11.8-6.4-.7-.6-1.9-.7-2.5-.3-.7.4-.9.3-.6-.3.4-.6-.6-1.7-2.1-2.4-3.7-1.9-18.9-12.3-23.2-15.9-2.8-2.3-3.1-2.9-1.5-2.8 2.1.1 12.8-1 18-1.9 9.7-1.6 9.1-1.7 17.6 3.6 4.4 2.8 8.4 4.9 9 4.6.5-.4.9-.2.9.3 0 .9 15.3 8.9 18 9.4.8.2 1.7.6 2 .9.7.9 15.6 6.8 18.5 7.3 1.3.2 3.2.9 4.2 1.4 1.6.8 11.6 3.7 16.1 4.7 15.4 3.4 20.6 4.3 23.5 4.1 2-.1 3.3.3 2.9.8-.3.5.1.7 1 .4.8-.4 2.1-.2 2.9.2.8.5 1.9.4 2.6-.2.7-.6 1.3-.6 1.3-.1 0 .8 5.5 1.3 18.5 1.8 2.8 0 5.5-.3 6.2-.7.6-.5 1.4-.5 1.7 0 .5.9 7.2.8 17.1-.3 2.2-.2 5-.4 6.3-.4 1.6-.1 2.1-.5 1.6-1.3-.6-1-.4-1 .7-.2.8.6 2.3 1 3.4.7 1.1-.2 3.4-.6 5.2-.8 8.2-1 12.3-1.8 21.2-4.1 5.3-1.4 10.1-2.6 10.6-2.8.6-.1 4.3-1.3 8.3-2.6 5.3-1.8 7.1-2.8 6.7-3.8-.4-1.2-.2-1.2.8-.3 1.1.8 2.9.5 7.8-1.5 3.5-1.4 6.8-3 7.4-3.5.5-.5 1.7-.9 2.6-.9.9 0 2.2-.7 2.9-1.5.7-.8 1.6-1.3 2-1 .4.3 1.3-.2 2-1s1.6-1.3 2-1c.4.3 1.3-.2 2-1s1.9-1.5 2.7-1.5c.8 0 1.2-.4.9-.9-.3-.5.2-.8 1.2-.7.9 0 1.6-.5 1.4-1.2-.1-.8.2-1.1.7-.7 1 .6 5.1-1.3 6.3-2.9.3-.5 3.7-.9 7.4-.8l6.7.2 4.6-4.8c5.9-6.1 11.9-12.9 15.3-17.3 1.4-1.9 6.1-6.9 10.3-11.2 4.1-4.3 7.3-8.2 7-8.7-.4-.6.1-.7 1.1-.3 1.4.5 1.6.3 1.1-1.1-.4-.9-.3-1.5.2-1.1.9.5 1.8-.5 8.6-8.9 1.7-2.1 3.7-4.6 4.5-5.6 2.8-3.4 4.9-6.5 5-7.2 0-.4 1.4-2.2 3-3.9 1.6-1.8 2.7-3.6 2.4-4.1-.3-.4-.1-.8.3-.8.5 0 2.3-2.5 4.2-5.6 1.8-3 3.5-5.3 3.8-5.1.2.3-1.7 4.9-4.4 10.4zM218 395.6c0 .8-1.9 1.3-2.4.6-.3-.5.1-.9.9-.9s1.5.2 1.5.3zm15 0c0 .8-1.9 1.3-2.4.6-.3-.5.1-.9.9-.9s1.5.2 1.5.3zm176.4.2c.3.5-.1.9-.9.9s-1.2-.4-.9-.9c.3-.4.7-.8.9-.8.2 0 .6.4.9.8zm15.6-.2c0 .8-1.9 1.3-2.4.6-.3-.5.1-.9.9-.9s1.5.2 1.5.3zm3.5.3c.3.5.2 1.2-.3 1.5-.5.3-.9-.1-.9-.9 0-1.7.3-1.9 1.2-.6zm24 0c.3.5.2 1.2-.3 1.5-.5.3-.9-.1-.9-.9 0-1.7.3-1.9 1.2-.6zm-360 3c.3.5.2 1.2-.3 1.5-.5.3-.9-.1-.9-.9 0-1.7.3-1.9 1.2-.6zm48.5-.5c0 .2-.8 1-1.7 1.7-1.6 1.3-1.7 1.2-.4-.4 1.3-1.6 2.1-2.1 2.1-1.3zm84 2c-.7.7-1.3.7-2 0-.6-.6-.3-1 1-1s1.6.4 1 1zm192.4-.2c-.3.4-.9.8-1.5.8-.5 0-.9-.4-.9-.8 0-.5.7-.9 1.5-.9s1.2.4.9.9zm-364.9 3.7c.3.5.2 1.2-.3 1.5-.5.3-.9-.1-.9-.9 0-1.7.3-1.9 1.2-.6zm104 0c.3.5.2 1.2-.3 1.5-.5.3-.9-.1-.9-.9 0-1.7.3-1.9 1.2-.6zm17.5-.3c0 .8-1.9 1.3-2.4.6-.3-.5.1-.9.9-.9s1.5.2 1.5.3zm30.5.3c.3.5.2 1.2-.3 1.5-.5.3-.9-.1-.9-.9 0-1.7.3-1.9 1.2-.6zm13.5-.3c0 .8-1.9 1.3-2.4.6-.3-.5.1-.9.9-.9s1.5.2 1.5.3zm15 0c0 .8-1.9 1.3-2.4.6-.3-.5.1-.9.9-.9s1.5.2 1.5.3zm143.4.2c.3.5-.1.9-.9.9s-1.2-.4-.9-.9c.3-.4.7-.8.9-.8.2 0 .6.4.9.8zm33.6-.2c0 .8-1.9 1.3-2.4.6-.3-.5.1-.9.9-.9s1.5.2 1.5.3zm26.7.9c0 .8-.4 1.2-.9.9-.5-.3-.6-1-.3-1.5.9-1.3 1.2-1.1 1.2.6zm32.3-.9c0 .8-1.9 1.3-2.4.6-.3-.5.1-.9.9-.9s1.5.2 1.5.3zm15.5.3c.3.5.2 1.2-.3 1.5-.5.3-.9-.1-.9-.9 0-1.7.3-1.9 1.2-.6zm-336 3c.3.5.2 1.2-.3 1.5-.5.3-.9-.1-.9-.9 0-1.7.3-1.9 1.2-.6zm48 0c.3.5.2 1.2-.3 1.5-.5.3-.9-.1-.9-.9 0-1.7.3-1.9 1.2-.6zm248.2.6c0 .8-.4 1.2-.9.9-.5-.3-.6-1-.3-1.5.9-1.3 1.2-1.1 1.2.6zm-339.7.9c-.7.7-1.3.7-2 0-.6-.6-.3-1 1-1s1.6.4 1 1zm80.4-.6c.2.4-.4.8-1.4.8-1 0-1.6-.4-1.4-.8.3-.4.9-.8 1.4-.8.5 0 1.1.4 1.4.8zm272 0c.2.4-.4.8-1.4.8-1 0-1.6-.4-1.4-.8.3-.4.9-.8 1.4-.8.5 0 1.1.4 1.4.8zM98 411.6c0 .8-1.9 1.3-2.4.6-.3-.5.1-.9.9-.9s1.5.2 1.5.3zm15 0c0 .8-1.9 1.3-2.4.6-.3-.5.1-.9.9-.9s1.5.2 1.5.3zm24-.2c0 .2-.7.7-1.6 1-.8.3-1.2.2-.9-.4.6-1 2.5-1.4 2.5-.6zm263.4.4c.3.5-.1.9-.9.9s-1.2-.4-.9-.9c.3-.4.7-.8.9-.8.2 0 .6.4.9.8zm12.6-.2c0 .8-1.9 1.3-2.4.6-.3-.5.1-.9.9-.9s1.5.2 1.5.3zm-198.6 4.2c.3.5-.1.9-.9.9s-1.2-.4-.9-.9c.3-.4.7-.8.9-.8.2 0 .6.4.9.8zm62.3 3.7c0 .8-.4 1.2-.9.9-.5-.3-.6-1-.3-1.5.9-1.3 1.2-1.1 1.2.6zm-140.3.3c.3.5-.1.9-.9.9s-1.2-.4-.9-.9c.3-.4.7-.8.9-.8.2 0 .6.4.9.8zm52.3.7c0 .8-.4 1.2-.9.9-.5-.3-.6-1-.3-1.5.9-1.3 1.2-1.1 1.2.6zm13.3-.9c0 .8-1.9 1.3-2.4.6-.3-.5.1-.9.9-.9s1.5.2 1.5.3zm79.4.2c.3.5-.1.9-.9.9s-1.2-.4-.9-.9c.3-.4.7-.8.9-.8.2 0 .6.4.9.8zm159.6-.2c0 .8-1.9 1.3-2.4.6-.3-.5.1-.9.9-.9s1.5.2 1.5.3zm-312.5 3.3c.3.5.2 1.2-.3 1.5-.5.3-.9-.1-.9-.9 0-1.7.3-1.9 1.2-.6zm44 0c.3.5.2 1.2-.3 1.5-.5.3-.9-.1-.9-.9 0-1.7.3-1.9 1.2-.6zm-24 1c.3.5.2 1.2-.3 1.5-.5.3-.9-.1-.9-.9 0-1.7.3-1.9 1.2-.6zm140 0c.3.5.2 1.2-.3 1.5-.5.3-.9-.1-.9-.9 0-1.7.3-1.9 1.2-.6zm-28 3c.3.5.2 1.2-.3 1.5-.5.3-.9-.1-.9-.9 0-1.7.3-1.9 1.2-.6zm-143.8 1.6c0 .8-.4 1.2-.9.9-.5-.3-.6-1-.3-1.5.9-1.3 1.2-1.1 1.2.6zm5.3-.9c0 .8-1.9 1.3-2.4.6-.3-.5.1-.9.9-.9s1.5.2 1.5.3zm52 0c0 .8-1.9 1.3-2.4.6-.3-.5.1-.9.9-.9s1.5.2 1.5.3zm123 0c0 .8-1.9 1.3-2.4.6-.3-.5.1-.9.9-.9s1.5.2 1.5.3zm3.5.3c.3.5.2 1.2-.3 1.5-.5.3-.9-.1-.9-.9 0-1.7.3-1.9 1.2-.6zm137.5-.3c0 .8-1.9 1.3-2.4.6-.3-.5.1-.9.9-.9s1.5.2 1.5.3zm14.4.2c.3.5-.1.9-.9.9s-1.2-.4-.9-.9c.3-.4.7-.8.9-.8.2 0 .6.4.9.8zM134 435.6c0 .8-1.9 1.3-2.4.6-.3-.5.1-.9.9-.9s1.5.2 1.5.3zm14.5.3c.3.5.2 1.2-.3 1.5-.5.3-.9-.1-.9-.9 0-1.7.3-1.9 1.2-.6zm105.5-.3c0 .8-1.9 1.3-2.4.6-.3-.5.1-.9.9-.9s1.5.2 1.5.3zm204 0c0 .8-1.9 1.3-2.4.6-.3-.5.1-.9.9-.9s1.5.2 1.5.3zm-197.6 8.2c.3.5-.1.9-.9.9s-1.2-.4-.9-.9c.3-.4.7-.8.9-.8.2 0 .6.4.9.8zm9 0c.3.5-.1.9-.9.9s-1.2-.4-.9-.9c.3-.4.7-.8.9-.8.2 0 .6.4.9.8zM136 447.6c0 .8-1.9 1.3-2.4.6-.3-.5.1-.9.9-.9s1.5.2 1.5.3zm124.7.9c0 .8-.4 1.2-.9.9-.5-.3-.6-1-.3-1.5.9-1.3 1.2-1.1 1.2.6zM134 451.6c0 .8-1.9 1.3-2.4.6-.3-.5.1-.9.9-.9s1.5.2 1.5.3zm102.7.9c0 .8-.4 1.2-.9.9-.5-.3-.6-1-.3-1.5.9-1.3 1.2-1.1 1.2.6zm79.7-.7c.3.5-.1.9-.9.9s-1.2-.4-.9-.9c.3-.4.7-.8.9-.8.2 0 .6.4.9.8zm-63.9 3.1c.3.5.2 1.2-.3 1.5-.5.3-.9-.1-.9-.9 0-1.7.3-1.9 1.2-.6zm40 1c.3.5.2 1.2-.3 1.5-.5.3-.9-.1-.9-.9 0-1.7.3-1.9 1.2-.6zm48 0c.3.5.2 1.2-.3 1.5-.5.3-.9-.1-.9-.9 0-1.7.3-1.9 1.2-.6zm-40 3c.3.5.2 1.2-.3 1.5-.5.3-.9-.1-.9-.9 0-1.7.3-1.9 1.2-.6zm48 0c.3.5.2 1.2-.3 1.5-.5.3-.9-.1-.9-.9 0-1.7.3-1.9 1.2-.6zm-127.1.9c.3.5-.1.9-.9.9s-1.2-.4-.9-.9c.3-.4.7-.8.9-.8.2 0 .6.4.9.8zm32.6-.2c0 .8-1.9 1.3-2.4.6-.3-.5.1-.9.9-.9s1.5.2 1.5.3zm59.4.2c.3.5-.1.9-.9.9s-1.2-.4-.9-.9c.3-.4.7-.8.9-.8.2 0 .6.4.9.8zm15.6-.2c0 .8-1.9 1.3-2.4.6-.3-.5.1-.9.9-.9s1.5.2 1.5.3zm-108.5 4.3c.3.5.2 1.2-.3 1.5-.5.3-.9-.1-.9-.9 0-1.7.3-1.9 1.2-.6zm69 .1c.3.6-.1.7-.9.4-1.8-.7-2.1-1.4-.7-1.4.6 0 1.3.4 1.6 1zm32-.1c-.9.8-3.6 1-3 .2.2-.4 1.1-.8 2-.8.8 0 1.3.3 1 .6zm-52.1 3.9c.3.5-.1.9-.9.9s-1.2-.4-.9-.9c.3-.4.7-.8.9-.8.2 0 .6.4.9.8zm18.7.9c1.3 1.6 1.2 1.7-.3.4-1.7-1.3-2.2-2.1-1.4-2.1.2 0 1 .8 1.7 1.7zm12.6-.2c0 .8-.4 1.2-.9.9-.5-.3-.6-1-.3-1.5.9-1.3 1.2-1.1 1.2.6zm28.3-.9c0 .8-1.9 1.3-2.4.6-.3-.5.1-.9.9-.9s1.5.2 1.5.3zm11.7.9c0 .8-.4 1.2-.9.9-.5-.3-.6-1-.3-1.5.9-1.3 1.2-1.1 1.2.6zM216.4 473c-.6.6-1 .3-1-1s.4-1.6 1-1c.7.7.7 1.3 0 2zm132.3-1.5c0 .8-.4 1.2-.9.9-.5-.3-.6-1-.3-1.5.9-1.3 1.2-1.1 1.2.6zm-160.2.4c.3.5.2 1.2-.3 1.5-.5.3-.9-.1-.9-.9 0-1.7.3-1.9 1.2-.6zm80 0c.3.5.2 1.2-.3 1.5-.5.3-.9-.1-.9-.9 0-1.7.3-1.9 1.2-.6zm96 0c.3.5.2 1.2-.3 1.5-.5.3-.9-.1-.9-.9 0-1.7.3-1.9 1.2-.6zm15.6.8c1.3 1.6 1.2 1.7-.3.4-1.7-1.3-2.2-2.1-1.4-2.1.2 0 1 .8 1.7 1.7zm-95.4 2.8c0 .8-.4 1.2-.9.9-.5-.3-.6-1-.3-1.5.9-1.3 1.2-1.1 1.2.6zm-83.2.5c.3.6-.1.7-.9.4-1.8-.7-2.1-1.4-.7-1.4.6 0 1.3.4 1.6 1zm27-.1c.3.5.2 1.2-.3 1.5-.5.3-.9-.1-.9-.9 0-1.7.3-1.9 1.2-.6zm75.9-.1c.3.5-.1.9-.9.9s-1.2-.4-.9-.9c.3-.4.7-.8.9-.8.2 0 .6.4.9.8zm-39.4 3.8c0 .8-1.9 1.3-2.4.6-.3-.5.1-.9.9-.9s1.5.2 1.5.3zm45-.2c0 .2-.8 1-1.7 1.7-1.6 1.3-1.7 1.2-.4-.4 1.3-1.6 2.1-2.1 2.1-1.3zm22.1 1.3c1.3 1.6 1.2 1.7-.3.4-1.7-1.3-2.2-2.1-1.4-2.1.2 0 1 .8 1.7 1.7zm-143.4 3.8c0 .8-.4 1.2-.9.9-.5-.3-.6-1-.3-1.5.9-1.3 1.2-1.1 1.2.6zm29.3-.9c0 .8-1.9 1.3-2.4.6-.3-.5.1-.9.9-.9s1.5.2 1.5.3zm15 0c0 .8-1.9 1.3-2.4.6-.3-.5.1-.9.9-.9s1.5.2 1.5.3zm43.5.3c.3.5.2 1.2-.3 1.5-.5.3-.9-.1-.9-.9 0-1.7.3-1.9 1.2-.6zm15.9-.1c.3.5-.1.9-.9.9s-1.2-.4-.9-.9c.3-.4.7-.8.9-.8.2 0 .6.4.9.8zm105.6-.2c0 .8-1.9 1.3-2.4.6-.3-.5.1-.9.9-.9s1.5.2 1.5.3zm47.4.2c.3.5-.1.9-.9.9s-1.2-.4-.9-.9c.3-.4.7-.8.9-.8.2 0 .6.4.9.8zm-184.7 3.7c0 .8-.4 1.2-.9.9-.5-.3-.6-1-.3-1.5.9-1.3 1.2-1.1 1.2.6zm119.8-.6c.3.5.2 1.2-.3 1.5-.5.3-.9-.1-.9-.9 0-1.7.3-1.9 1.2-.6zm-175.8 1.6c0 .8-.4 1.2-.9.9-.5-.3-.6-1-.3-1.5.9-1.3 1.2-1.1 1.2.6zm39.8-.6c.3.5.2 1.2-.3 1.5-.5.3-.9-.1-.9-.9 0-1.7.3-1.9 1.2-.6zm48.2.6c0 .8-.4 1.2-.9.9-.5-.3-.6-1-.3-1.5.9-1.3 1.2-1.1 1.2.6zm56 0c0 .8-.4 1.2-.9.9-.5-.3-.6-1-.3-1.5.9-1.3 1.2-1.1 1.2.6zM193 490.4c0 .2-.8 1-1.7 1.7-1.6 1.3-1.7 1.2-.4-.4 1.3-1.6 2.1-2.1 2.1-1.3zm59.5.5c.3.5.2 1.2-.3 1.5-.5.3-.9-.1-.9-.9 0-1.7.3-1.9 1.2-.6zm-22.5.7c0 .8-1.9 1.3-2.4.6-.3-.5.1-.9.9-.9s1.5.2 1.5.3zm152 0c0 .8-1.9 1.3-2.4.6-.3-.5.1-.9.9-.9s1.5.2 1.5.3zM241 496c0 .5-.2 1-.4 1-.3 0-.8-.5-1.1-1-.3-.6-.1-1 .4-1 .6 0 1.1.4 1.1 1zm67.5 2.9c.3.5.2 1.2-.3 1.5-.5.3-.9-.1-.9-.9 0-1.7.3-1.9 1.2-.6zm24 0c.3.5.2 1.2-.3 1.5-.5.3-.9-.1-.9-.9 0-1.7.3-1.9 1.2-.6zm-80 1c.3.5.2 1.2-.3 1.5-.5.3-.9-.1-.9-.9 0-1.7.3-1.9 1.2-.6zm13.5-.3c0 .8-1.9 1.3-2.4.6-.3-.5.1-.9.9-.9s1.5.2 1.5.3zm14.4.2c.3.5-.1.9-.9.9s-1.2-.4-.9-.9c.3-.4.7-.8.9-.8.2 0 .6.4.9.8zm48 0c.3.5-.1.9-.9.9s-1.2-.4-.9-.9c.3-.4.7-.8.9-.8.2 0 .6.4.9.8zm12.1.1c.3.5.2 1.2-.3 1.5-.5.3-.9-.1-.9-.9 0-1.7.3-1.9 1.2-.6zm-96 3c.3.5.2 1.2-.3 1.5-.5.3-.9-.1-.9-.9 0-1.7.3-1.9 1.2-.6zm45.5 4.7c0 .8-1.9 1.3-2.4.6-.3-.5.1-.9.9-.9s1.5.2 1.5.3zm15 0c0 .8-1.9 1.3-2.4.6-.3-.5.1-.9.9-.9s1.5.2 1.5.3zm3.5.3c.3.5.2 1.2-.3 1.5-.5.3-.9-.1-.9-.9 0-1.7.3-1.9 1.2-.6zm28.9-.1c.3.5-.1.9-.9.9s-1.2-.4-.9-.9c.3-.4.7-.8.9-.8.2 0 .6.4.9.8zm-63.1 5.7c-.3.9-.8 1.4-1 1.1-.3-.3-.2-.9.2-1.5.9-1.6 1.5-1.3.8.4zM241 536c0 .5-.2 1-.4 1-.3 0-.8-.5-1.1-1-.3-.6-.1-1 .4-1 .6 0 1.1.4 1.1 1z"/></svg>